<?xml version="1.0" encoding="UTF-8"?>
<!DOCTYPE svg PUBLIC "-//W3C//DTD SVG 1.1//EN" "http://www.w3.org/Graphics/SVG/1.1/DTD/svg11.dtd">
<svg width="273mm" height="178mm" viewBox="0 0 27300 17800" version="1.1" xmlns="http://www.w3.org/2000/svg" xmlns:xlink="http://www.w3.org/1999/xlink" stroke-width="28.222" stroke-linejoin="round" xml:space="preserve">
 <path fill="rgb(255,255,255)" stroke="none" d="M 13657,17770 L 0,17770 0,0 27314,0 27314,17770 13657,17770 Z"/>
 <path fill="none" stroke="rgb(179,179,179)" stroke-linejoin="round" d="M 12303,16715 L 956,16715 956,581 23649,581 23649,16715 12303,16715 Z"/>
 <path fill="none" stroke="rgb(179,179,179)" stroke-linejoin="round" d="M 23649,16714 L 956,16714"/>
 <path fill="none" stroke="rgb(179,179,179)" stroke-linejoin="round" d="M 23649,14921 L 956,14921"/>
 <path fill="none" stroke="rgb(179,179,179)" stroke-linejoin="round" d="M 23649,13128 L 956,13128"/>
 <path fill="none" stroke="rgb(179,179,179)" stroke-linejoin="round" d="M 23649,11335 L 956,11335"/>
 <path fill="none" stroke="rgb(179,179,179)" stroke-linejoin="round" d="M 23649,9542 L 956,9542"/>
 <path fill="none" stroke="rgb(179,179,179)" stroke-linejoin="round" d="M 23649,7751 L 956,7751"/>
 <path fill="none" stroke="rgb(179,179,179)" stroke-linejoin="round" d="M 23649,5958 L 956,5958"/>
 <path fill="none" stroke="rgb(179,179,179)" stroke-linejoin="round" d="M 23649,4165 L 956,4165"/>
 <path fill="none" stroke="rgb(179,179,179)" stroke-linejoin="round" d="M 23649,2372 L 956,2372"/>
 <path fill="none" stroke="rgb(179,179,179)" stroke-linejoin="round" d="M 23649,580 L 956,580"/>
 <path fill="none" stroke="rgb(179,179,179)" stroke-linejoin="round" d="M 956,16864 L 956,16714"/>
 <path fill="none" stroke="rgb(179,179,179)" stroke-linejoin="round" d="M 956,16864 L 956,16714"/>
 <path fill="none" stroke="rgb(179,179,179)" stroke-linejoin="round" d="M 3792,16864 L 3792,16714"/>
 <path fill="none" stroke="rgb(179,179,179)" stroke-linejoin="round" d="M 3792,16864 L 3792,16714"/>
 <path fill="none" stroke="rgb(179,179,179)" stroke-linejoin="round" d="M 6629,16864 L 6629,16714"/>
 <path fill="none" stroke="rgb(179,179,179)" stroke-linejoin="round" d="M 6629,16864 L 6629,16714"/>
 <path fill="none" stroke="rgb(179,179,179)" stroke-linejoin="round" d="M 9466,16864 L 9466,16714"/>
 <path fill="none" stroke="rgb(179,179,179)" stroke-linejoin="round" d="M 9466,16864 L 9466,16714"/>
 <path fill="none" stroke="rgb(179,179,179)" stroke-linejoin="round" d="M 12303,16864 L 12303,16714"/>
 <path fill="none" stroke="rgb(179,179,179)" stroke-linejoin="round" d="M 12303,16864 L 12303,16714"/>
 <path fill="none" stroke="rgb(179,179,179)" stroke-linejoin="round" d="M 15138,16864 L 15138,16714"/>
 <path fill="none" stroke="rgb(179,179,179)" stroke-linejoin="round" d="M 15138,16864 L 15138,16714"/>
 <path fill="none" stroke="rgb(179,179,179)" stroke-linejoin="round" d="M 17975,16864 L 17975,16714"/>
 <path fill="none" stroke="rgb(179,179,179)" stroke-linejoin="round" d="M 17975,16864 L 17975,16714"/>
 <path fill="none" stroke="rgb(179,179,179)" stroke-linejoin="round" d="M 20812,16864 L 20812,16714"/>
 <path fill="none" stroke="rgb(179,179,179)" stroke-linejoin="round" d="M 20812,16864 L 20812,16714"/>
 <path fill="none" stroke="rgb(179,179,179)" stroke-linejoin="round" d="M 23649,16864 L 23649,16714"/>
 <path fill="none" stroke="rgb(179,179,179)" stroke-linejoin="round" d="M 23649,16864 L 23649,16714"/>
 <path fill="none" stroke="rgb(179,179,179)" stroke-linejoin="round" d="M 956,16714 L 23649,16714"/>
 <path fill="none" stroke="rgb(179,179,179)" stroke-linejoin="round" d="M 806,16714 L 956,16714"/>
 <path fill="none" stroke="rgb(179,179,179)" stroke-linejoin="round" d="M 806,16714 L 956,16714"/>
 <path fill="none" stroke="rgb(179,179,179)" stroke-linejoin="round" d="M 806,14921 L 956,14921"/>
 <path fill="none" stroke="rgb(179,179,179)" stroke-linejoin="round" d="M 806,14921 L 956,14921"/>
 <path fill="none" stroke="rgb(179,179,179)" stroke-linejoin="round" d="M 806,13128 L 956,13128"/>
 <path fill="none" stroke="rgb(179,179,179)" stroke-linejoin="round" d="M 806,13128 L 956,13128"/>
 <path fill="none" stroke="rgb(179,179,179)" stroke-linejoin="round" d="M 806,11335 L 956,11335"/>
 <path fill="none" stroke="rgb(179,179,179)" stroke-linejoin="round" d="M 806,11335 L 956,11335"/>
 <path fill="none" stroke="rgb(179,179,179)" stroke-linejoin="round" d="M 806,9542 L 956,9542"/>
 <path fill="none" stroke="rgb(179,179,179)" stroke-linejoin="round" d="M 806,9542 L 956,9542"/>
 <path fill="none" stroke="rgb(179,179,179)" stroke-linejoin="round" d="M 806,7751 L 956,7751"/>
 <path fill="none" stroke="rgb(179,179,179)" stroke-linejoin="round" d="M 806,7751 L 956,7751"/>
 <path fill="none" stroke="rgb(179,179,179)" stroke-linejoin="round" d="M 806,5958 L 956,5958"/>
 <path fill="none" stroke="rgb(179,179,179)" stroke-linejoin="round" d="M 806,5958 L 956,5958"/>
 <path fill="none" stroke="rgb(179,179,179)" stroke-linejoin="round" d="M 806,4165 L 956,4165"/>
 <path fill="none" stroke="rgb(179,179,179)" stroke-linejoin="round" d="M 806,4165 L 956,4165"/>
 <path fill="none" stroke="rgb(179,179,179)" stroke-linejoin="round" d="M 806,2372 L 956,2372"/>
 <path fill="none" stroke="rgb(179,179,179)" stroke-linejoin="round" d="M 806,2372 L 956,2372"/>
 <path fill="none" stroke="rgb(179,179,179)" stroke-linejoin="round" d="M 806,580 L 956,580"/>
 <path fill="none" stroke="rgb(179,179,179)" stroke-linejoin="round" d="M 806,580 L 956,580"/>
 <path fill="none" stroke="rgb(179,179,179)" stroke-linejoin="round" d="M 956,16714 L 956,580"/>
 <path fill="none" stroke="rgb(0,69,134)" stroke-width="80" stroke-linejoin="round" d="M 956,16684 L 1097,16683 1239,16682 1381,16681 1523,16680 1665,16679 1807,16678 1948,16678 2090,16677 2232,16676 2374,16674 2516,16673 2658,16672 2799,16671 2941,16670 3083,16669 3225,16667 3367,16666 3509,16665 3650,16663 3792,16662 3934,16660 4076,16658 4218,16656 4360,16655 4501,16653 4643,16651 4785,16649 4927,16646 5069,16644 5211,16642 5352,16640 5494,16637 5636,16635 5778,16632 5920,16629 6062,16627 6203,16624 6345,16621 6487,16618 6629,16615 6771,16612 6913,16609 7055,16605 7196,16602 7338,16598 7480,16595 7622,16591 7764,16587 7906,16583 8047,16579 8189,16575 8331,16570 8473,16565 8615,16561 8757,16556 8898,16551 9040,16545 9182,16540 9324,16534 9466,16528 9608,16522 9749,16515 9891,16509 10033,16502 10175,16495 10317,16487 10459,16480 10600,16472 10742,16463 10884,16455 11026,16446 11168,16437 11310,16427 11451,16418 11593,16407 11735,16397 11877,16386 12019,16375 12161,16363 12303,16351 12444,16339 12586,16326 12728,16313 12870,16299 13012,16285 13154,16270 13295,16254 13437,16238 13579,16221 13720,16204 13862,16185 14004,16166 14145,16146 14287,16125 14429,16103 14571,16080 14713,16055 14855,16030 14996,16004 15138,15977 15280,15948 15422,15918 15564,15887 15706,15855 15847,15821 15989,15786 16131,15749 16273,15711 16415,15672 16557,15631 16698,15588 16840,15544 16982,15498 17124,15451 17266,15402 17408,15351 17549,15298 17691,15243 17833,15187 17975,15129 18117,15068 18259,15006 18401,14940 18542,14871 18684,14797 18826,14719 18968,14636 19110,14548 19252,14453 19393,14351 19535,14242 19677,14125 19819,14000 19961,13866 20103,13723 20244,13570 20386,13406 20528,13232 20670,13046 20812,12847 20954,12637 21095,12414 21237,12180 21379,11936 21521,11681 21663,11417 21805,11144 21946,10863 22088,10574 22230,10279 22372,9977 22514,9669 22656,9357 22797,9040 22939,8720 23081,8396 23223,8070 23365,7742 23507,7412 23649,7082"/>
 <path fill="rgb(0,69,134)" stroke="none" d="M 831,16559 L 831,16809 1081,16809 1081,16559 831,16559 Z"/>
 <path fill="none" stroke="rgb(0,69,134)" stroke-linejoin="round" d="M 831,16559 L 831,16809 1081,16809 1081,16559 831,16559 Z"/>
 <path fill="rgb(0,69,134)" stroke="none" d="M 3667,16537 L 3667,16787 3917,16787 3917,16537 3667,16537 Z"/>
 <path fill="none" stroke="rgb(0,69,134)" stroke-linejoin="round" d="M 3667,16537 L 3667,16787 3917,16787 3917,16537 3667,16537 Z"/>
 <path fill="rgb(0,69,134)" stroke="none" d="M 6504,16490 L 6504,16740 6754,16740 6754,16490 6504,16490 Z"/>
 <path fill="none" stroke="rgb(0,69,134)" stroke-linejoin="round" d="M 6504,16490 L 6504,16740 6754,16740 6754,16490 6504,16490 Z"/>
 <path fill="rgb(0,69,134)" stroke="none" d="M 9341,16403 L 9341,16653 9591,16653 9591,16403 9341,16403 Z"/>
 <path fill="none" stroke="rgb(0,69,134)" stroke-linejoin="round" d="M 9341,16403 L 9341,16653 9591,16653 9591,16403 9341,16403 Z"/>
 <path fill="rgb(0,69,134)" stroke="none" d="M 12178,16226 L 12178,16476 12428,16476 12428,16226 12178,16226 Z"/>
 <path fill="none" stroke="rgb(0,69,134)" stroke-linejoin="round" d="M 12178,16226 L 12178,16476 12428,16476 12428,16226 12178,16226 Z"/>
 <path fill="rgb(0,69,134)" stroke="none" d="M 15013,15852 L 15013,16102 15263,16102 15263,15852 15013,15852 Z"/>
 <path fill="none" stroke="rgb(0,69,134)" stroke-linejoin="round" d="M 15013,15852 L 15013,16102 15263,16102 15263,15852 15013,15852 Z"/>
 <path fill="rgb(0,69,134)" stroke="none" d="M 17850,15004 L 17850,15254 18100,15254 18100,15004 17850,15004 Z"/>
 <path fill="none" stroke="rgb(0,69,134)" stroke-linejoin="round" d="M 17850,15004 L 17850,15254 18100,15254 18100,15004 17850,15004 Z"/>
 <path fill="rgb(0,69,134)" stroke="none" d="M 20687,12722 L 20687,12972 20937,12972 20937,12722 20687,12722 Z"/>
 <path fill="none" stroke="rgb(0,69,134)" stroke-linejoin="round" d="M 20687,12722 L 20687,12972 20937,12972 20937,12722 20687,12722 Z"/>
 <path fill="rgb(0,69,134)" stroke="none" d="M 23524,6957 L 23524,7207 23774,7207 23774,6957 23524,6957 Z"/>
 <path fill="none" stroke="rgb(0,69,134)" stroke-linejoin="round" d="M 23524,6957 L 23524,7207 23774,7207 23774,6957 23524,6957 Z"/>
 <path fill="none" stroke="rgb(255,66,14)" stroke-width="80" stroke-linejoin="round" d="M 956,16697 L 1097,16697 1239,16697 1381,16697 1523,16696 1665,16696 1807,16695 1948,16695 2090,16695 2232,16694 2374,16693 2516,16693 2658,16692 2799,16691 2941,16690 3083,16689 3225,16688 3367,16686 3509,16685 3650,16683 3792,16681 3934,16679 4076,16677 4218,16675 4360,16673 4501,16670 4643,16668 4785,16665 4927,16663 5069,16660 5211,16658 5352,16656 5494,16653 5636,16651 5778,16649 5920,16647 6062,16645 6203,16644 6345,16642 6487,16641 6629,16640 6771,16639 6913,16639 7055,16639 7196,16638 7338,16638 7480,16639 7622,16639 7764,16639 7906,16639 8047,16639 8189,16638 8331,16638 8473,16637 8615,16637 8757,16635 8898,16634 9040,16632 9182,16630 9324,16627 9466,16624 9608,16620 9749,16616 9891,16611 10033,16606 10175,16601 10317,16595 10459,16590 10600,16584 10742,16578 10884,16572 11026,16566 11168,16560 11310,16555 11451,16549 11593,16544 11735,16540 11877,16535 12019,16531 12161,16528 12303,16525 12444,16523 12586,16521 12728,16520 12870,16519 13012,16518 13154,16517 13295,16515 13437,16514 13579,16511 13720,16508 13862,16504 14004,16499 14145,16493 14287,16486 14429,16477 14571,16467 14713,16454 14855,16440 14996,16424 15138,16406 15280,16385 15422,16363 15564,16338 15706,16311 15847,16282 15989,16252 16131,16220 16273,16187 16415,16152 16557,16116 16698,16078 16840,16040 16982,16001 17124,15961 17266,15921 17408,15880 17549,15839 17691,15797 17833,15756 17975,15714 18117,15672 18259,15631 18401,15589 18542,15547 18684,15505 18826,15463 18968,15420 19110,15377 19252,15333 19393,15288 19535,15242 19677,15196 19819,15148 19961,15099 20103,15050 20244,14998 20386,14946 20528,14892 20670,14836 20812,14779 20954,14720 21095,14659 21237,14597 21379,14533 21521,14468 21663,14402 21805,14334 21946,14265 22088,14195 22230,14124 22372,14053 22514,13980 22656,13907 22797,13833 22939,13759 23081,13684 23223,13608 23365,13533 23507,13457 23649,13382"/>
 <path fill="rgb(255,66,14)" stroke="none" d="M 831,16697 L 956,16822 1081,16697 956,16572 831,16697 Z"/>
 <path fill="none" stroke="rgb(255,66,14)" stroke-linejoin="round" d="M 831,16697 L 956,16822 1081,16697 956,16572 831,16697 Z"/>
 <path fill="rgb(255,66,14)" stroke="none" d="M 3667,16681 L 3792,16806 3917,16681 3792,16556 3667,16681 Z"/>
 <path fill="none" stroke="rgb(255,66,14)" stroke-linejoin="round" d="M 3667,16681 L 3792,16806 3917,16681 3792,16556 3667,16681 Z"/>
 <path fill="rgb(255,66,14)" stroke="none" d="M 6504,16640 L 6629,16765 6754,16640 6629,16515 6504,16640 Z"/>
 <path fill="none" stroke="rgb(255,66,14)" stroke-linejoin="round" d="M 6504,16640 L 6629,16765 6754,16640 6629,16515 6504,16640 Z"/>
 <path fill="rgb(255,66,14)" stroke="none" d="M 9341,16624 L 9466,16749 9591,16624 9466,16499 9341,16624 Z"/>
 <path fill="none" stroke="rgb(255,66,14)" stroke-linejoin="round" d="M 9341,16624 L 9466,16749 9591,16624 9466,16499 9341,16624 Z"/>
 <path fill="rgb(255,66,14)" stroke="none" d="M 12178,16525 L 12303,16650 12428,16525 12303,16400 12178,16525 Z"/>
 <path fill="none" stroke="rgb(255,66,14)" stroke-linejoin="round" d="M 12178,16525 L 12303,16650 12428,16525 12303,16400 12178,16525 Z"/>
 <path fill="rgb(255,66,14)" stroke="none" d="M 15013,16406 L 15138,16531 15263,16406 15138,16281 15013,16406 Z"/>
 <path fill="none" stroke="rgb(255,66,14)" stroke-linejoin="round" d="M 15013,16406 L 15138,16531 15263,16406 15138,16281 15013,16406 Z"/>
 <path fill="rgb(255,66,14)" stroke="none" d="M 17850,15714 L 17975,15839 18100,15714 17975,15589 17850,15714 Z"/>
 <path fill="none" stroke="rgb(255,66,14)" stroke-linejoin="round" d="M 17850,15714 L 17975,15839 18100,15714 17975,15589 17850,15714 Z"/>
 <path fill="rgb(255,66,14)" stroke="none" d="M 20687,14779 L 20812,14904 20937,14779 20812,14654 20687,14779 Z"/>
 <path fill="none" stroke="rgb(255,66,14)" stroke-linejoin="round" d="M 20687,14779 L 20812,14904 20937,14779 20812,14654 20687,14779 Z"/>
 <path fill="rgb(255,66,14)" stroke="none" d="M 23524,13382 L 23649,13507 23774,13382 23649,13257 23524,13382 Z"/>
 <path fill="none" stroke="rgb(255,66,14)" stroke-linejoin="round" d="M 23524,13382 L 23649,13507 23774,13382 23649,13257 23524,13382 Z"/>
 <path fill="none" stroke="rgb(255,211,32)" stroke-width="80" stroke-linejoin="round" d="M 956,16566 L 1097,16561 1239,16556 1381,16550 1523,16545 1665,16540 1807,16534 1948,16529 2090,16523 2232,16517 2374,16511 2516,16505 2658,16499 2799,16493 2941,16487 3083,16480 3225,16473 3367,16467 3509,16459 3650,16452 3792,16445 3934,16437 4076,16429 4218,16421 4360,16412 4501,16403 4643,16394 4785,16385 4927,16376 5069,16366 5211,16356 5352,16345 5494,16335 5636,16324 5778,16313 5920,16302 6062,16290 6203,16278 6345,16266 6487,16253 6629,16240 6771,16227 6913,16214 7055,16200 7196,16186 7338,16171 7480,16156 7622,16140 7764,16124 7906,16108 8047,16090 8189,16073 8331,16054 8473,16035 8615,16016 8757,15995 8898,15974 9040,15952 9182,15930 9324,15906 9466,15882 9608,15856 9749,15830 9891,15803 10033,15775 10175,15746 10317,15716 10459,15685 10600,15653 10742,15620 10884,15586 11026,15551 11168,15515 11310,15477 11451,15438 11593,15399 11735,15357 11877,15315 12019,15272 12161,15227 12303,15181 12444,15133 12586,15084 12728,15034 12870,14983 13012,14929 13154,14875 13295,14818 13437,14761 13579,14701 13720,14640 13862,14577 14004,14512 14145,14446 14287,14377 14429,14307 14571,14235 14713,14161 14855,14084 14996,14006 15138,13926 15280,13843 15422,13758 15564,13671 15706,13581 15847,13488 15989,13393 16131,13294 16273,13192 16415,13087 16557,12978 16698,12866 16840,12750 16982,12630 17124,12505 17266,12377 17408,12244 17549,12106 17691,11964 17833,11816 17975,11664 18117,11507 18259,11344 18401,11176 18542,11003 18684,10825 18826,10641 18968,10452 19110,10257 19252,10058 19393,9853 19535,9642 19677,9427 19819,9205 19961,8979 20103,8747 20244,8510 20386,8267 20528,8018 20670,7764 20812,7504 20954,7239 21095,6968 21237,6693 21379,6412 21521,6128 21663,5839 21805,5546 21946,5249 22088,4950 22230,4647 22372,4341 22514,4033 22656,3723 22797,3410 22939,3096 23081,2781 23223,2464 23365,2147 23507,1829 23649,1511"/>
 <path fill="rgb(255,211,32)" stroke="none" d="M 831,16441 L 956,16691 1081,16441 831,16441 Z"/>
 <path fill="none" stroke="rgb(255,211,32)" stroke-linejoin="round" d="M 831,16441 L 956,16691 1081,16441 831,16441 Z"/>
 <path fill="rgb(255,211,32)" stroke="none" d="M 3667,16320 L 3792,16570 3917,16320 3667,16320 Z"/>
 <path fill="none" stroke="rgb(255,211,32)" stroke-linejoin="round" d="M 3667,16320 L 3792,16570 3917,16320 3667,16320 Z"/>
 <path fill="rgb(255,211,32)" stroke="none" d="M 6504,16115 L 6629,16365 6754,16115 6504,16115 Z"/>
 <path fill="none" stroke="rgb(255,211,32)" stroke-linejoin="round" d="M 6504,16115 L 6629,16365 6754,16115 6504,16115 Z"/>
 <path fill="rgb(255,211,32)" stroke="none" d="M 9341,15757 L 9466,16007 9591,15757 9341,15757 Z"/>
 <path fill="none" stroke="rgb(255,211,32)" stroke-linejoin="round" d="M 9341,15757 L 9466,16007 9591,15757 9341,15757 Z"/>
 <path fill="rgb(255,211,32)" stroke="none" d="M 12178,15056 L 12303,15306 12428,15056 12178,15056 Z"/>
 <path fill="none" stroke="rgb(255,211,32)" stroke-linejoin="round" d="M 12178,15056 L 12303,15306 12428,15056 12178,15056 Z"/>
 <path fill="rgb(255,211,32)" stroke="none" d="M 15013,13801 L 15138,14051 15263,13801 15013,13801 Z"/>
 <path fill="none" stroke="rgb(255,211,32)" stroke-linejoin="round" d="M 15013,13801 L 15138,14051 15263,13801 15013,13801 Z"/>
 <path fill="rgb(255,211,32)" stroke="none" d="M 17850,11539 L 17975,11789 18100,11539 17850,11539 Z"/>
 <path fill="none" stroke="rgb(255,211,32)" stroke-linejoin="round" d="M 17850,11539 L 17975,11789 18100,11539 17850,11539 Z"/>
 <path fill="rgb(255,211,32)" stroke="none" d="M 20687,7379 L 20812,7629 20937,7379 20687,7379 Z"/>
 <path fill="none" stroke="rgb(255,211,32)" stroke-linejoin="round" d="M 20687,7379 L 20812,7629 20937,7379 20687,7379 Z"/>
 <path fill="rgb(255,211,32)" stroke="none" d="M 23524,1386 L 23649,1636 23774,1386 23524,1386 Z"/>
 <path fill="none" stroke="rgb(255,211,32)" stroke-linejoin="round" d="M 23524,1386 L 23649,1636 23774,1386 23524,1386 Z"/>
 <path fill="none" stroke="rgb(87,157,28)" stroke-width="80" stroke-linejoin="round" d="M 956,16643 L 1097,16641 1239,16639 1381,16637 1523,16635 1665,16633 1807,16631 1948,16628 2090,16626 2232,16624 2374,16622 2516,16620 2658,16618 2799,16616 2941,16614 3083,16612 3225,16609 3367,16607 3509,16605 3650,16603 3792,16601 3934,16598 4076,16596 4218,16594 4360,16591 4501,16589 4643,16586 4785,16584 4927,16581 5069,16579 5211,16576 5352,16573 5494,16570 5636,16567 5778,16564 5920,16561 6062,16558 6203,16555 6345,16552 6487,16548 6629,16545 6771,16541 6913,16538 7055,16534 7196,16530 7338,16526 7480,16522 7622,16517 7764,16513 7906,16508 8047,16503 8189,16498 8331,16492 8473,16487 8615,16481 8757,16474 8898,16468 9040,16461 9182,16454 9324,16446 9466,16438 9608,16430 9749,16422 9891,16413 10033,16403 10175,16394 10317,16384 10459,16374 10600,16363 10742,16352 10884,16341 11026,16329 11168,16318 11310,16305 11451,16293 11593,16280 11735,16267 11877,16254 12019,16240 12161,16227 12303,16212 12444,16198 12586,16183 12728,16168 12870,16153 13012,16137 13154,16121 13295,16105 13437,16088 13579,16070 13720,16053 13862,16034 14004,16015 14145,15996 14287,15976 14429,15956 14571,15934 14713,15913 14855,15890 14996,15867 15138,15843 15280,15819 15422,15793 15564,15767 15706,15740 15847,15713 15989,15684 16131,15655 16273,15625 16415,15594 16557,15562 16698,15530 16840,15496 16982,15462 17124,15427 17266,15390 17408,15353 17549,15315 17691,15276 17833,15236 17975,15195 18117,15153 18259,15110 18401,15066 18542,15020 18684,14973 18826,14925 18968,14875 19110,14824 19252,14771 19393,14717 19535,14661 19677,14603 19819,14543 19961,14481 20103,14417 20244,14350 20386,14282 20528,14211 20670,14138 20812,14063 20954,13985 21095,13905 21237,13822 21379,13737 21521,13651 21663,13562 21805,13472 21946,13380 22088,13286 22230,13191 22372,13095 22514,12998 22656,12899 22797,12800 22939,12700 23081,12600 23223,12499 23365,12397 23507,12296 23649,12194"/>
 <path fill="rgb(87,157,28)" stroke="none" d="M 831,16768 L 1081,16768 956,16518 831,16768 Z"/>
 <path fill="none" stroke="rgb(87,157,28)" stroke-linejoin="round" d="M 831,16768 L 1081,16768 956,16518 831,16768 Z"/>
 <path fill="rgb(87,157,28)" stroke="none" d="M 3667,16726 L 3917,16726 3792,16476 3667,16726 Z"/>
 <path fill="none" stroke="rgb(87,157,28)" stroke-linejoin="round" d="M 3667,16726 L 3917,16726 3792,16476 3667,16726 Z"/>
 <path fill="rgb(87,157,28)" stroke="none" d="M 6504,16670 L 6754,16670 6629,16420 6504,16670 Z"/>
 <path fill="none" stroke="rgb(87,157,28)" stroke-linejoin="round" d="M 6504,16670 L 6754,16670 6629,16420 6504,16670 Z"/>
 <path fill="rgb(87,157,28)" stroke="none" d="M 9341,16563 L 9591,16563 9466,16313 9341,16563 Z"/>
 <path fill="none" stroke="rgb(87,157,28)" stroke-linejoin="round" d="M 9341,16563 L 9591,16563 9466,16313 9341,16563 Z"/>
 <path fill="rgb(87,157,28)" stroke="none" d="M 12178,16337 L 12428,16337 12303,16087 12178,16337 Z"/>
 <path fill="none" stroke="rgb(87,157,28)" stroke-linejoin="round" d="M 12178,16337 L 12428,16337 12303,16087 12178,16337 Z"/>
 <path fill="rgb(87,157,28)" stroke="none" d="M 15013,15968 L 15263,15968 15138,15718 15013,15968 Z"/>
 <path fill="none" stroke="rgb(87,157,28)" stroke-linejoin="round" d="M 15013,15968 L 15263,15968 15138,15718 15013,15968 Z"/>
 <path fill="rgb(87,157,28)" stroke="none" d="M 17850,15320 L 18100,15320 17975,15070 17850,15320 Z"/>
 <path fill="none" stroke="rgb(87,157,28)" stroke-linejoin="round" d="M 17850,15320 L 18100,15320 17975,15070 17850,15320 Z"/>
 <path fill="rgb(87,157,28)" stroke="none" d="M 20687,14188 L 20937,14188 20812,13938 20687,14188 Z"/>
 <path fill="none" stroke="rgb(87,157,28)" stroke-linejoin="round" d="M 20687,14188 L 20937,14188 20812,13938 20687,14188 Z"/>
 <path fill="rgb(87,157,28)" stroke="none" d="M 23524,12319 L 23774,12319 23649,12069 23524,12319 Z"/>
 <path fill="none" stroke="rgb(87,157,28)" stroke-linejoin="round" d="M 23524,12319 L 23774,12319 23649,12069 23524,12319 Z"/>
 <text class="TextShape"><tspan class="TextParagraph" font-family="Source Sans Pro, sans-serif" font-size="353px" font-weight="400"><tspan class="TextPosition" x="479" y="17308"><tspan fill="rgb(0,0,0)" stroke="none">425000</tspan></tspan></tspan></text>
 <text class="TextShape"><tspan class="TextParagraph" font-family="Source Sans Pro, sans-serif" font-size="353px" font-weight="400"><tspan class="TextPosition" x="3315" y="17308"><tspan fill="rgb(0,0,0)" stroke="none">722500</tspan></tspan></tspan></text>
 <text class="TextShape"><tspan class="TextParagraph" font-family="Source Sans Pro, sans-serif" font-size="353px" font-weight="400"><tspan class="TextPosition" x="6073" y="17308"><tspan fill="rgb(0,0,0)" stroke="none">1228250</tspan></tspan></tspan></text>
 <text class="TextShape"><tspan class="TextParagraph" font-family="Source Sans Pro, sans-serif" font-size="353px" font-weight="400"><tspan class="TextPosition" x="8910" y="17308"><tspan fill="rgb(0,0,0)" stroke="none">2088025</tspan></tspan></tspan></text>
 <text class="TextShape"><tspan class="TextParagraph" font-family="Source Sans Pro, sans-serif" font-size="353px" font-weight="400"><tspan class="TextPosition" x="11747" y="17308"><tspan fill="rgb(0,0,0)" stroke="none">3549642</tspan></tspan></tspan></text>
 <text class="TextShape"><tspan class="TextParagraph" font-family="Source Sans Pro, sans-serif" font-size="353px" font-weight="400"><tspan class="TextPosition" x="14583" y="17308"><tspan fill="rgb(0,0,0)" stroke="none">6034391</tspan></tspan></tspan></text>
 <text class="TextShape"><tspan class="TextParagraph" font-family="Source Sans Pro, sans-serif" font-size="353px" font-weight="400"><tspan class="TextPosition" x="17341" y="17308"><tspan fill="rgb(0,0,0)" stroke="none">10258464</tspan></tspan></tspan></text>
 <text class="TextShape"><tspan class="TextParagraph" font-family="Source Sans Pro, sans-serif" font-size="353px" font-weight="400"><tspan class="TextPosition" x="20178" y="17308"><tspan fill="rgb(0,0,0)" stroke="none">17439388</tspan></tspan></tspan></text>
 <text class="TextShape"><tspan class="TextParagraph" font-family="Source Sans Pro, sans-serif" font-size="353px" font-weight="400"><tspan class="TextPosition" x="23015" y="17308"><tspan fill="rgb(0,0,0)" stroke="none">29646959</tspan></tspan></tspan></text>
 <text class="TextShape"><tspan class="TextParagraph" font-family="Source Sans Pro, sans-serif" font-size="353px" font-weight="400"><tspan class="TextPosition" x="547" y="16834"><tspan fill="rgb(0,0,0)" stroke="none">0</tspan></tspan></tspan></text>
 <text class="TextShape"><tspan class="TextParagraph" font-family="Source Sans Pro, sans-serif" font-size="353px" font-weight="400"><tspan class="TextPosition" x="547" y="15041"><tspan fill="rgb(0,0,0)" stroke="none">2</tspan></tspan></tspan></text>
 <text class="TextShape"><tspan class="TextParagraph" font-family="Source Sans Pro, sans-serif" font-size="353px" font-weight="400"><tspan class="TextPosition" x="547" y="13248"><tspan fill="rgb(0,0,0)" stroke="none">4</tspan></tspan></tspan></text>
 <text class="TextShape"><tspan class="TextParagraph" font-family="Source Sans Pro, sans-serif" font-size="353px" font-weight="400"><tspan class="TextPosition" x="547" y="11455"><tspan fill="rgb(0,0,0)" stroke="none">6</tspan></tspan></tspan></text>
 <text class="TextShape"><tspan class="TextParagraph" font-family="Source Sans Pro, sans-serif" font-size="353px" font-weight="400"><tspan class="TextPosition" x="547" y="9662"><tspan fill="rgb(0,0,0)" stroke="none">8</tspan></tspan></tspan></text>
 <text class="TextShape"><tspan class="TextParagraph" font-family="Source Sans Pro, sans-serif" font-size="353px" font-weight="400"><tspan class="TextPosition" x="388" y="7870"><tspan fill="rgb(0,0,0)" stroke="none">10</tspan></tspan></tspan></text>
 <text class="TextShape"><tspan class="TextParagraph" font-family="Source Sans Pro, sans-serif" font-size="353px" font-weight="400"><tspan class="TextPosition" x="388" y="6077"><tspan fill="rgb(0,0,0)" stroke="none">12</tspan></tspan></tspan></text>
 <text class="TextShape"><tspan class="TextParagraph" font-family="Source Sans Pro, sans-serif" font-size="353px" font-weight="400"><tspan class="TextPosition" x="388" y="4284"><tspan fill="rgb(0,0,0)" stroke="none">14</tspan></tspan></tspan></text>
 <text class="TextShape"><tspan class="TextParagraph" font-family="Source Sans Pro, sans-serif" font-size="353px" font-weight="400"><tspan class="TextPosition" x="388" y="2491"><tspan fill="rgb(0,0,0)" stroke="none">16</tspan></tspan></tspan></text>
 <text class="TextShape"><tspan class="TextParagraph" font-family="Source Sans Pro, sans-serif" font-size="353px" font-weight="400"><tspan class="TextPosition" x="388" y="699"><tspan fill="rgb(0,0,0)" stroke="none">18</tspan></tspan></tspan></text>
 <path fill="none" stroke="rgb(0,69,134)" stroke-width="80" stroke-linejoin="round" d="M 25107,8058 L 25907,8058"/>
 <path fill="rgb(0,69,134)" stroke="none" d="M 25401,7953 L 25401,8164 25612,8164 25612,7953 25401,7953 Z"/>
 <path fill="none" stroke="rgb(0,69,134)" stroke-linejoin="round" d="M 25401,7953 L 25401,8164 25612,8164 25612,7953 25401,7953 Z"/>
 <path fill="none" stroke="rgb(255,66,14)" stroke-width="80" stroke-linejoin="round" d="M 25107,8609 L 25907,8609"/>
 <path fill="rgb(255,66,14)" stroke="none" d="M 25401,8609 L 25507,8715 25612,8609 25507,8504 25401,8609 Z"/>
 <path fill="none" stroke="rgb(255,66,14)" stroke-linejoin="round" d="M 25401,8609 L 25507,8715 25612,8609 25507,8504 25401,8609 Z"/>
 <path fill="none" stroke="rgb(255,211,32)" stroke-width="80" stroke-linejoin="round" d="M 25107,9159 L 25907,9159"/>
 <path fill="rgb(255,211,32)" stroke="none" d="M 25401,9054 L 25507,9265 25612,9054 25401,9054 Z"/>
 <path fill="none" stroke="rgb(255,211,32)" stroke-linejoin="round" d="M 25401,9054 L 25507,9265 25612,9054 25401,9054 Z"/>
 <path fill="none" stroke="rgb(87,157,28)" stroke-width="80" stroke-linejoin="round" d="M 25107,9710 L 25907,9710"/>
 <path fill="rgb(87,157,28)" stroke="none" d="M 25401,9816 L 25612,9816 25507,9605 25401,9816 Z"/>
 <path fill="none" stroke="rgb(87,157,28)" stroke-linejoin="round" d="M 25401,9816 L 25612,9816 25507,9605 25401,9816 Z"/>
 <text class="TextShape"><tspan class="TextParagraph" font-family="Source Sans Pro, sans-serif" font-size="353px" font-weight="400"><tspan class="TextPosition" x="26007" y="8177"><tspan fill="rgb(0,0,0)" stroke="none">quick</tspan></tspan></tspan></text>
 <text class="TextShape"><tspan class="TextParagraph" font-family="Source Sans Pro, sans-serif" font-size="353px" font-weight="400"><tspan class="TextPosition" x="26007" y="8728"><tspan fill="rgb(0,0,0)" stroke="none">pquick</tspan></tspan></tspan></text>
 <text class="TextShape"><tspan class="TextParagraph" font-family="Source Sans Pro, sans-serif" font-size="353px" font-weight="400"><tspan class="TextPosition" x="26007" y="9278"><tspan fill="rgb(0,0,0)" stroke="none">bitonic</tspan></tspan></tspan></text>
 <text class="TextShape"><tspan class="TextParagraph" font-family="Source Sans Pro, sans-serif" font-size="353px" font-weight="400"><tspan class="TextPosition" x="26007" y="9829"><tspan fill="rgb(0,0,0)" stroke="none">gpu</tspan></tspan></tspan></text>
</svg>