<?xml version="1.0" encoding="UTF-8"?>
<!DOCTYPE svg PUBLIC "-//W3C//DTD SVG 1.1//EN" "http://www.w3.org/Graphics/SVG/1.1/DTD/svg11.dtd">
<svg width="265mm" height="169mm" viewBox="0 0 26500 16900" version="1.1" xmlns="http://www.w3.org/2000/svg" xmlns:xlink="http://www.w3.org/1999/xlink" stroke-width="28.222" stroke-linejoin="round" xml:space="preserve">
 <path fill="rgb(255,255,255)" stroke="none" d="M 13267,16918 L 0,16918 0,0 26533,0 26533,16918 13267,16918 Z"/>
 <path fill="none" stroke="rgb(179,179,179)" stroke-linejoin="round" d="M 11966,15933 L 1086,15933 1086,537 22846,537 22846,15933 11966,15933 Z"/>
 <path fill="none" stroke="rgb(179,179,179)" stroke-linejoin="round" d="M 22846,15932 L 1086,15932"/>
 <path fill="none" stroke="rgb(179,179,179)" stroke-linejoin="round" d="M 22846,14392 L 1086,14392"/>
 <path fill="none" stroke="rgb(179,179,179)" stroke-linejoin="round" d="M 22846,12852 L 1086,12852"/>
 <path fill="none" stroke="rgb(179,179,179)" stroke-linejoin="round" d="M 22846,11312 L 1086,11312"/>
 <path fill="none" stroke="rgb(179,179,179)" stroke-linejoin="round" d="M 22846,9773 L 1086,9773"/>
 <path fill="none" stroke="rgb(179,179,179)" stroke-linejoin="round" d="M 22846,8234 L 1086,8234"/>
 <path fill="none" stroke="rgb(179,179,179)" stroke-linejoin="round" d="M 22846,6694 L 1086,6694"/>
 <path fill="none" stroke="rgb(179,179,179)" stroke-linejoin="round" d="M 22846,5155 L 1086,5155"/>
 <path fill="none" stroke="rgb(179,179,179)" stroke-linejoin="round" d="M 22846,3615 L 1086,3615"/>
 <path fill="none" stroke="rgb(179,179,179)" stroke-linejoin="round" d="M 22846,2075 L 1086,2075"/>
 <path fill="none" stroke="rgb(179,179,179)" stroke-linejoin="round" d="M 22846,536 L 1086,536"/>
 <path fill="none" stroke="rgb(179,179,179)" stroke-linejoin="round" d="M 1086,16082 L 1086,15932"/>
 <path fill="none" stroke="rgb(179,179,179)" stroke-linejoin="round" d="M 1086,16082 L 1086,15932"/>
 <path fill="none" stroke="rgb(179,179,179)" stroke-linejoin="round" d="M 4712,16082 L 4712,15932"/>
 <path fill="none" stroke="rgb(179,179,179)" stroke-linejoin="round" d="M 4712,16082 L 4712,15932"/>
 <path fill="none" stroke="rgb(179,179,179)" stroke-linejoin="round" d="M 8339,16082 L 8339,15932"/>
 <path fill="none" stroke="rgb(179,179,179)" stroke-linejoin="round" d="M 8339,16082 L 8339,15932"/>
 <path fill="none" stroke="rgb(179,179,179)" stroke-linejoin="round" d="M 11966,16082 L 11966,15932"/>
 <path fill="none" stroke="rgb(179,179,179)" stroke-linejoin="round" d="M 11966,16082 L 11966,15932"/>
 <path fill="none" stroke="rgb(179,179,179)" stroke-linejoin="round" d="M 15592,16082 L 15592,15932"/>
 <path fill="none" stroke="rgb(179,179,179)" stroke-linejoin="round" d="M 15592,16082 L 15592,15932"/>
 <path fill="none" stroke="rgb(179,179,179)" stroke-linejoin="round" d="M 19219,16082 L 19219,15932"/>
 <path fill="none" stroke="rgb(179,179,179)" stroke-linejoin="round" d="M 19219,16082 L 19219,15932"/>
 <path fill="none" stroke="rgb(179,179,179)" stroke-linejoin="round" d="M 22846,16082 L 22846,15932"/>
 <path fill="none" stroke="rgb(179,179,179)" stroke-linejoin="round" d="M 22846,16082 L 22846,15932"/>
 <path fill="none" stroke="rgb(179,179,179)" stroke-linejoin="round" d="M 1086,15932 L 22846,15932"/>
 <path fill="none" stroke="rgb(179,179,179)" stroke-linejoin="round" d="M 936,15932 L 1086,15932"/>
 <path fill="none" stroke="rgb(179,179,179)" stroke-linejoin="round" d="M 936,15932 L 1086,15932"/>
 <path fill="none" stroke="rgb(179,179,179)" stroke-linejoin="round" d="M 936,14392 L 1086,14392"/>
 <path fill="none" stroke="rgb(179,179,179)" stroke-linejoin="round" d="M 936,14392 L 1086,14392"/>
 <path fill="none" stroke="rgb(179,179,179)" stroke-linejoin="round" d="M 936,12852 L 1086,12852"/>
 <path fill="none" stroke="rgb(179,179,179)" stroke-linejoin="round" d="M 936,12852 L 1086,12852"/>
 <path fill="none" stroke="rgb(179,179,179)" stroke-linejoin="round" d="M 936,11312 L 1086,11312"/>
 <path fill="none" stroke="rgb(179,179,179)" stroke-linejoin="round" d="M 936,11312 L 1086,11312"/>
 <path fill="none" stroke="rgb(179,179,179)" stroke-linejoin="round" d="M 936,9773 L 1086,9773"/>
 <path fill="none" stroke="rgb(179,179,179)" stroke-linejoin="round" d="M 936,9773 L 1086,9773"/>
 <path fill="none" stroke="rgb(179,179,179)" stroke-linejoin="round" d="M 936,8234 L 1086,8234"/>
 <path fill="none" stroke="rgb(179,179,179)" stroke-linejoin="round" d="M 936,8234 L 1086,8234"/>
 <path fill="none" stroke="rgb(179,179,179)" stroke-linejoin="round" d="M 936,6694 L 1086,6694"/>
 <path fill="none" stroke="rgb(179,179,179)" stroke-linejoin="round" d="M 936,6694 L 1086,6694"/>
 <path fill="none" stroke="rgb(179,179,179)" stroke-linejoin="round" d="M 936,5155 L 1086,5155"/>
 <path fill="none" stroke="rgb(179,179,179)" stroke-linejoin="round" d="M 936,5155 L 1086,5155"/>
 <path fill="none" stroke="rgb(179,179,179)" stroke-linejoin="round" d="M 936,3615 L 1086,3615"/>
 <path fill="none" stroke="rgb(179,179,179)" stroke-linejoin="round" d="M 936,3615 L 1086,3615"/>
 <path fill="none" stroke="rgb(179,179,179)" stroke-linejoin="round" d="M 936,2075 L 1086,2075"/>
 <path fill="none" stroke="rgb(179,179,179)" stroke-linejoin="round" d="M 936,2075 L 1086,2075"/>
 <path fill="none" stroke="rgb(179,179,179)" stroke-linejoin="round" d="M 936,536 L 1086,536"/>
 <path fill="none" stroke="rgb(179,179,179)" stroke-linejoin="round" d="M 936,536 L 1086,536"/>
 <path fill="none" stroke="rgb(179,179,179)" stroke-linejoin="round" d="M 1086,15932 L 1086,536"/>
 <path fill="none" stroke="rgb(0,69,134)" stroke-width="80" stroke-linejoin="round" d="M 1086,15899 L 1267,15898 1448,15896 1630,15895 1811,15894 1992,15892 2174,15891 2355,15889 2536,15887 2718,15886 2899,15884 3080,15882 3262,15880 3443,15878 3624,15876 3806,15874 3987,15871 4168,15869 4350,15866 4531,15864 4712,15861 4894,15858 5075,15854 5256,15851 5438,15847 5619,15844 5800,15840 5982,15836 6163,15832 6344,15827 6526,15823 6707,15818 6888,15814 7070,15809 7251,15804 7432,15799 7614,15793 7795,15788 7976,15783 8158,15777 8339,15771 8521,15766 8702,15760 8883,15753 9065,15747 9246,15740 9427,15733 9609,15725 9790,15716 9971,15707 10153,15697 10334,15687 10515,15676 10697,15663 10878,15650 11059,15636 11241,15621 11422,15604 11603,15587 11785,15568 11966,15547 12147,15526 12329,15503 12510,15478 12691,15453 12873,15426 13054,15398 13235,15369 13416,15340 13597,15309 13778,15277 13960,15245 14141,15212 14322,15179 14504,15144 14685,15110 14866,15074 15048,15039 15229,15003 15410,14967 15592,14931 15773,14894 15955,14857 16136,14817 16317,14774 16499,14728 16680,14677 16861,14620 17043,14556 17224,14485 17405,14405 17587,14316 17768,14217 17949,14106 18131,13983 18312,13847 18493,13696 18675,13531 18856,13349 19037,13151 19219,12934 19400,12700 19581,12447 19763,12178 19944,11892 20125,11592 20307,11277 20488,10949 20669,10609 20851,10258 21032,9896 21213,9525 21395,9146 21576,8759 21757,8366 21939,7967 22120,7563 22301,7155 22483,6745 22664,6332 22846,5919"/>
 <path fill="rgb(0,69,134)" stroke="none" d="M 961,15774 L 961,16024 1211,16024 1211,15774 961,15774 Z"/>
 <path fill="none" stroke="rgb(0,69,134)" stroke-linejoin="round" d="M 961,15774 L 961,16024 1211,16024 1211,15774 961,15774 Z"/>
 <path fill="rgb(0,69,134)" stroke="none" d="M 4587,15736 L 4587,15986 4837,15986 4837,15736 4587,15736 Z"/>
 <path fill="none" stroke="rgb(0,69,134)" stroke-linejoin="round" d="M 4587,15736 L 4587,15986 4837,15986 4837,15736 4587,15736 Z"/>
 <path fill="rgb(0,69,134)" stroke="none" d="M 8214,15646 L 8214,15896 8464,15896 8464,15646 8214,15646 Z"/>
 <path fill="none" stroke="rgb(0,69,134)" stroke-linejoin="round" d="M 8214,15646 L 8214,15896 8464,15896 8464,15646 8214,15646 Z"/>
 <path fill="rgb(0,69,134)" stroke="none" d="M 11841,15422 L 11841,15672 12091,15672 12091,15422 11841,15422 Z"/>
 <path fill="none" stroke="rgb(0,69,134)" stroke-linejoin="round" d="M 11841,15422 L 11841,15672 12091,15672 12091,15422 11841,15422 Z"/>
 <path fill="rgb(0,69,134)" stroke="none" d="M 15467,14806 L 15467,15056 15717,15056 15717,14806 15467,14806 Z"/>
 <path fill="none" stroke="rgb(0,69,134)" stroke-linejoin="round" d="M 15467,14806 L 15467,15056 15717,15056 15717,14806 15467,14806 Z"/>
 <path fill="rgb(0,69,134)" stroke="none" d="M 19094,12809 L 19094,13059 19344,13059 19344,12809 19094,12809 Z"/>
 <path fill="none" stroke="rgb(0,69,134)" stroke-linejoin="round" d="M 19094,12809 L 19094,13059 19344,13059 19344,12809 19094,12809 Z"/>
 <path fill="rgb(0,69,134)" stroke="none" d="M 22721,5794 L 22721,6044 22971,6044 22971,5794 22721,5794 Z"/>
 <path fill="none" stroke="rgb(0,69,134)" stroke-linejoin="round" d="M 22721,5794 L 22721,6044 22971,6044 22971,5794 22721,5794 Z"/>
 <path fill="none" stroke="rgb(255,66,14)" stroke-width="80" stroke-linejoin="round" d="M 1086,15914 L 1267,15914 1448,15914 1630,15914 1811,15914 1992,15913 2174,15913 2355,15913 2536,15913 2718,15912 2899,15912 3080,15911 3262,15911 3443,15910 3624,15909 3806,15908 3987,15907 4168,15906 4350,15905 4531,15903 4712,15901 4894,15900 5075,15898 5256,15895 5438,15893 5619,15891 5800,15888 5982,15886 6163,15883 6344,15880 6526,15877 6707,15874 6888,15872 7070,15869 7251,15866 7432,15863 7614,15860 7795,15857 7976,15854 8158,15852 8339,15849 8521,15847 8702,15844 8883,15842 9065,15839 9246,15836 9427,15833 9609,15830 9790,15827 9971,15823 10153,15818 10334,15813 10515,15808 10697,15802 10878,15795 11059,15788 11241,15780 11422,15771 11603,15761 11785,15750 11966,15738 12147,15725 12329,15711 12510,15697 12691,15681 12873,15665 13054,15648 13235,15630 13416,15612 13597,15594 13778,15576 13960,15557 14141,15539 14322,15520 14504,15502 14685,15484 14866,15466 15048,15448 15229,15431 15410,15415 15592,15400 15773,15385 15955,15370 16136,15356 16317,15341 16499,15325 16680,15307 16861,15288 17043,15267 17224,15243 17405,15215 17587,15185 17768,15150 17949,15111 18131,15067 18312,15018 18493,14963 18675,14902 18856,14834 19037,14760 19219,14677 19400,14588 19581,14490 19763,14386 19944,14275 20125,14157 20307,14034 20488,13905 20669,13771 20851,13632 21032,13489 21213,13342 21395,13192 21576,13038 21757,12882 21939,12723 22120,12562 22301,12400 22483,12236 22664,12072 22846,11907"/>
 <path fill="rgb(255,66,14)" stroke="none" d="M 961,15914 L 1086,16039 1211,15914 1086,15789 961,15914 Z"/>
 <path fill="none" stroke="rgb(255,66,14)" stroke-linejoin="round" d="M 961,15914 L 1086,16039 1211,15914 1086,15789 961,15914 Z"/>
 <path fill="rgb(255,66,14)" stroke="none" d="M 4587,15901 L 4712,16026 4837,15901 4712,15776 4587,15901 Z"/>
 <path fill="none" stroke="rgb(255,66,14)" stroke-linejoin="round" d="M 4587,15901 L 4712,16026 4837,15901 4712,15776 4587,15901 Z"/>
 <path fill="rgb(255,66,14)" stroke="none" d="M 8214,15849 L 8339,15974 8464,15849 8339,15724 8214,15849 Z"/>
 <path fill="none" stroke="rgb(255,66,14)" stroke-linejoin="round" d="M 8214,15849 L 8339,15974 8464,15849 8339,15724 8214,15849 Z"/>
 <path fill="rgb(255,66,14)" stroke="none" d="M 11841,15738 L 11966,15863 12091,15738 11966,15613 11841,15738 Z"/>
 <path fill="none" stroke="rgb(255,66,14)" stroke-linejoin="round" d="M 11841,15738 L 11966,15863 12091,15738 11966,15613 11841,15738 Z"/>
 <path fill="rgb(255,66,14)" stroke="none" d="M 15467,15400 L 15592,15525 15717,15400 15592,15275 15467,15400 Z"/>
 <path fill="none" stroke="rgb(255,66,14)" stroke-linejoin="round" d="M 15467,15400 L 15592,15525 15717,15400 15592,15275 15467,15400 Z"/>
 <path fill="rgb(255,66,14)" stroke="none" d="M 19094,14677 L 19219,14802 19344,14677 19219,14552 19094,14677 Z"/>
 <path fill="none" stroke="rgb(255,66,14)" stroke-linejoin="round" d="M 19094,14677 L 19219,14802 19344,14677 19219,14552 19094,14677 Z"/>
 <path fill="rgb(255,66,14)" stroke="none" d="M 22721,11907 L 22846,12032 22971,11907 22846,11782 22721,11907 Z"/>
 <path fill="none" stroke="rgb(255,66,14)" stroke-linejoin="round" d="M 22721,11907 L 22846,12032 22971,11907 22846,11782 22721,11907 Z"/>
 <path fill="none" stroke="rgb(255,211,32)" stroke-width="80" stroke-linejoin="round" d="M 1086,15787 L 1267,15780 1448,15773 1630,15766 1811,15759 1992,15751 2174,15744 2355,15736 2536,15729 2718,15721 2899,15713 3080,15705 3262,15696 3443,15687 3624,15678 3806,15669 3987,15659 4168,15649 4350,15638 4531,15627 4712,15616 4894,15604 5075,15592 5256,15579 5438,15565 5619,15551 5800,15537 5982,15522 6163,15506 6344,15489 6526,15472 6707,15454 6888,15435 7070,15416 7251,15396 7432,15375 7614,15353 7795,15330 7976,15306 8158,15282 8339,15256 8521,15230 8702,15202 8883,15174 9065,15144 9246,15113 9427,15080 9609,15047 9790,15012 9971,14975 10153,14937 10334,14897 10515,14856 10697,14813 10878,14768 11059,14721 11241,14673 11422,14622 11603,14570 11785,14515 11966,14458 12147,14399 12329,14338 12510,14274 12691,14208 12873,14140 13054,14069 13235,13996 13416,13920 13597,13842 13778,13762 13960,13679 14141,13593 14322,13505 14504,13414 14685,13320 14866,13224 15048,13125 15229,13023 15410,12919 15592,12811 15773,12701 15955,12587 16136,12470 16317,12347 16499,12220 16680,12088 16861,11949 17043,11803 17224,11651 17405,11490 17587,11322 17768,11145 17949,10958 18131,10762 18312,10555 18493,10337 18675,10108 18856,9866 19037,9612 19219,9345 19400,9065 19581,8772 19763,8466 19944,8150 20125,7822 20307,7484 20488,7136 20669,6779 20851,6415 21032,6042 21213,5663 21395,5278 21576,4887 21757,4492 21939,4092 22120,3689 22301,3283 22483,2876 22664,2467 22846,2057"/>
 <path fill="rgb(255,211,32)" stroke="none" d="M 961,15662 L 1086,15912 1211,15662 961,15662 Z"/>
 <path fill="none" stroke="rgb(255,211,32)" stroke-linejoin="round" d="M 961,15662 L 1086,15912 1211,15662 961,15662 Z"/>
 <path fill="rgb(255,211,32)" stroke="none" d="M 4587,15491 L 4712,15741 4837,15491 4587,15491 Z"/>
 <path fill="none" stroke="rgb(255,211,32)" stroke-linejoin="round" d="M 4587,15491 L 4712,15741 4837,15491 4587,15491 Z"/>
 <path fill="rgb(255,211,32)" stroke="none" d="M 8214,15131 L 8339,15381 8464,15131 8214,15131 Z"/>
 <path fill="none" stroke="rgb(255,211,32)" stroke-linejoin="round" d="M 8214,15131 L 8339,15381 8464,15131 8214,15131 Z"/>
 <path fill="rgb(255,211,32)" stroke="none" d="M 11841,14333 L 11966,14583 12091,14333 11841,14333 Z"/>
 <path fill="none" stroke="rgb(255,211,32)" stroke-linejoin="round" d="M 11841,14333 L 11966,14583 12091,14333 11841,14333 Z"/>
 <path fill="rgb(255,211,32)" stroke="none" d="M 15467,12686 L 15592,12936 15717,12686 15467,12686 Z"/>
 <path fill="none" stroke="rgb(255,211,32)" stroke-linejoin="round" d="M 15467,12686 L 15592,12936 15717,12686 15467,12686 Z"/>
 <path fill="rgb(255,211,32)" stroke="none" d="M 19094,9220 L 19219,9470 19344,9220 19094,9220 Z"/>
 <path fill="none" stroke="rgb(255,211,32)" stroke-linejoin="round" d="M 19094,9220 L 19219,9470 19344,9220 19094,9220 Z"/>
 <path fill="rgb(255,211,32)" stroke="none" d="M 22721,1932 L 22846,2182 22971,1932 22721,1932 Z"/>
 <path fill="none" stroke="rgb(255,211,32)" stroke-linejoin="round" d="M 22721,1932 L 22846,2182 22971,1932 22721,1932 Z"/>
 <path fill="none" stroke="rgb(87,157,28)" stroke-width="80" stroke-linejoin="round" d="M 1086,15868 L 1267,15866 1448,15863 1630,15860 1811,15857 1992,15854 2174,15851 2355,15848 2536,15845 2718,15842 2899,15839 3080,15836 3262,15833 3443,15830 3624,15827 3806,15824 3987,15820 4168,15817 4350,15814 4531,15810 4712,15807 4894,15803 5075,15800 5256,15796 5438,15792 5619,15788 5800,15784 5982,15779 6163,15775 6344,15770 6526,15765 6707,15760 6888,15754 7070,15749 7251,15743 7432,15737 7614,15730 7795,15723 7976,15716 8158,15708 8339,15701 8521,15692 8702,15684 8883,15674 9065,15665 9246,15655 9427,15645 9609,15634 9790,15622 9971,15611 10153,15598 10334,15585 10515,15572 10697,15558 10878,15544 11059,15529 11241,15513 11422,15497 11603,15480 11785,15463 11966,15445 12147,15426 12329,15407 12510,15387 12691,15367 12873,15345 13054,15323 13235,15301 13416,15277 13597,15253 13778,15228 13960,15203 14141,15176 14322,15149 14504,15121 14685,15092 14866,15063 15048,15032 15229,15001 15410,14969 15592,14936 15773,14902 15955,14867 16136,14831 16317,14794 16499,14755 16680,14714 16861,14671 17043,14627 17224,14580 17405,14531 17587,14479 17768,14425 17949,14368 18131,14308 18312,14245 18493,14179 18675,14109 18856,14035 19037,13958 19219,13877 19400,13791 19581,13702 19763,13609 19944,13513 20125,13413 20307,13311 20488,13205 20669,13097 20851,12986 21032,12873 21213,12758 21395,12641 21576,12523 21757,12403 21939,12281 22120,12159 22301,12036 22483,11913 22664,11788 22846,11664"/>
 <path fill="rgb(87,157,28)" stroke="none" d="M 961,15993 L 1211,15993 1086,15743 961,15993 Z"/>
 <path fill="none" stroke="rgb(87,157,28)" stroke-linejoin="round" d="M 961,15993 L 1211,15993 1086,15743 961,15993 Z"/>
 <path fill="rgb(87,157,28)" stroke="none" d="M 4587,15932 L 4837,15932 4712,15682 4587,15932 Z"/>
 <path fill="none" stroke="rgb(87,157,28)" stroke-linejoin="round" d="M 4587,15932 L 4837,15932 4712,15682 4587,15932 Z"/>
 <path fill="rgb(87,157,28)" stroke="none" d="M 8214,15826 L 8464,15826 8339,15576 8214,15826 Z"/>
 <path fill="none" stroke="rgb(87,157,28)" stroke-linejoin="round" d="M 8214,15826 L 8464,15826 8339,15576 8214,15826 Z"/>
 <path fill="rgb(87,157,28)" stroke="none" d="M 11841,15570 L 12091,15570 11966,15320 11841,15570 Z"/>
 <path fill="none" stroke="rgb(87,157,28)" stroke-linejoin="round" d="M 11841,15570 L 12091,15570 11966,15320 11841,15570 Z"/>
 <path fill="rgb(87,157,28)" stroke="none" d="M 15467,15061 L 15717,15061 15592,14811 15467,15061 Z"/>
 <path fill="none" stroke="rgb(87,157,28)" stroke-linejoin="round" d="M 15467,15061 L 15717,15061 15592,14811 15467,15061 Z"/>
 <path fill="rgb(87,157,28)" stroke="none" d="M 19094,14002 L 19344,14002 19219,13752 19094,14002 Z"/>
 <path fill="none" stroke="rgb(87,157,28)" stroke-linejoin="round" d="M 19094,14002 L 19344,14002 19219,13752 19094,14002 Z"/>
 <path fill="rgb(87,157,28)" stroke="none" d="M 22721,11789 L 22971,11789 22846,11539 22721,11789 Z"/>
 <path fill="none" stroke="rgb(87,157,28)" stroke-linejoin="round" d="M 22721,11789 L 22971,11789 22846,11539 22721,11789 Z"/>
 <text class="TextShape"><tspan class="TextParagraph" font-family="Liberation Sans, sans-serif" font-size="353px" font-weight="400"><tspan class="TextPosition" x="530" y="16500"><tspan fill="rgb(0,0,0)" stroke="none">524288</tspan></tspan></tspan></text>
 <text class="TextShape"><tspan class="TextParagraph" font-family="Liberation Sans, sans-serif" font-size="353px" font-weight="400"><tspan class="TextPosition" x="4064" y="16500"><tspan fill="rgb(0,0,0)" stroke="none">1048576</tspan></tspan></tspan></text>
 <text class="TextShape"><tspan class="TextParagraph" font-family="Liberation Sans, sans-serif" font-size="353px" font-weight="400"><tspan class="TextPosition" x="7691" y="16500"><tspan fill="rgb(0,0,0)" stroke="none">2097152</tspan></tspan></tspan></text>
 <text class="TextShape"><tspan class="TextParagraph" font-family="Liberation Sans, sans-serif" font-size="353px" font-weight="400"><tspan class="TextPosition" x="11318" y="16500"><tspan fill="rgb(0,0,0)" stroke="none">4194304</tspan></tspan></tspan></text>
 <text class="TextShape"><tspan class="TextParagraph" font-family="Liberation Sans, sans-serif" font-size="353px" font-weight="400"><tspan class="TextPosition" x="14945" y="16500"><tspan fill="rgb(0,0,0)" stroke="none">8388608</tspan></tspan></tspan></text>
 <text class="TextShape"><tspan class="TextParagraph" font-family="Liberation Sans, sans-serif" font-size="353px" font-weight="400"><tspan class="TextPosition" x="18479" y="16500"><tspan fill="rgb(0,0,0)" stroke="none">16777216</tspan></tspan></tspan></text>
 <text class="TextShape"><tspan class="TextParagraph" font-family="Liberation Sans, sans-serif" font-size="353px" font-weight="400"><tspan class="TextPosition" x="22106" y="16500"><tspan fill="rgb(0,0,0)" stroke="none">33554432</tspan></tspan></tspan></text>
 <text class="TextShape"><tspan class="TextParagraph" font-family="Liberation Sans, sans-serif" font-size="353px" font-weight="400"><tspan class="TextPosition" x="651" y="16053"><tspan fill="rgb(0,0,0)" stroke="none">0</tspan></tspan></tspan></text>
 <text class="TextShape"><tspan class="TextParagraph" font-family="Liberation Sans, sans-serif" font-size="353px" font-weight="400"><tspan class="TextPosition" x="651" y="14513"><tspan fill="rgb(0,0,0)" stroke="none">2</tspan></tspan></tspan></text>
 <text class="TextShape"><tspan class="TextParagraph" font-family="Liberation Sans, sans-serif" font-size="353px" font-weight="400"><tspan class="TextPosition" x="651" y="12973"><tspan fill="rgb(0,0,0)" stroke="none">4</tspan></tspan></tspan></text>
 <text class="TextShape"><tspan class="TextParagraph" font-family="Liberation Sans, sans-serif" font-size="353px" font-weight="400"><tspan class="TextPosition" x="651" y="11433"><tspan fill="rgb(0,0,0)" stroke="none">6</tspan></tspan></tspan></text>
 <text class="TextShape"><tspan class="TextParagraph" font-family="Liberation Sans, sans-serif" font-size="353px" font-weight="400"><tspan class="TextPosition" x="651" y="9894"><tspan fill="rgb(0,0,0)" stroke="none">8</tspan></tspan></tspan></text>
 <text class="TextShape"><tspan class="TextParagraph" font-family="Liberation Sans, sans-serif" font-size="353px" font-weight="400"><tspan class="TextPosition" x="466" y="8354"><tspan fill="rgb(0,0,0)" stroke="none">10</tspan></tspan></tspan></text>
 <text class="TextShape"><tspan class="TextParagraph" font-family="Liberation Sans, sans-serif" font-size="353px" font-weight="400"><tspan class="TextPosition" x="466" y="6814"><tspan fill="rgb(0,0,0)" stroke="none">12</tspan></tspan></tspan></text>
 <text class="TextShape"><tspan class="TextParagraph" font-family="Liberation Sans, sans-serif" font-size="353px" font-weight="400"><tspan class="TextPosition" x="466" y="5275"><tspan fill="rgb(0,0,0)" stroke="none">14</tspan></tspan></tspan></text>
 <text class="TextShape"><tspan class="TextParagraph" font-family="Liberation Sans, sans-serif" font-size="353px" font-weight="400"><tspan class="TextPosition" x="466" y="3735"><tspan fill="rgb(0,0,0)" stroke="none">16</tspan></tspan></tspan></text>
 <text class="TextShape"><tspan class="TextParagraph" font-family="Liberation Sans, sans-serif" font-size="353px" font-weight="400"><tspan class="TextPosition" x="466" y="2195"><tspan fill="rgb(0,0,0)" stroke="none">18</tspan></tspan></tspan></text>
 <text class="TextShape"><tspan class="TextParagraph" font-family="Liberation Sans, sans-serif" font-size="353px" font-weight="400"><tspan class="TextPosition" x="466" y="656"><tspan fill="rgb(0,0,0)" stroke="none">20</tspan></tspan></tspan></text>
 <path fill="none" stroke="rgb(0,69,134)" stroke-width="80" stroke-linejoin="round" d="M 24300,7711 L 25100,7711"/>
 <path fill="rgb(0,69,134)" stroke="none" d="M 24594,7606 L 24594,7817 24805,7817 24805,7606 24594,7606 Z"/>
 <path fill="none" stroke="rgb(0,69,134)" stroke-linejoin="round" d="M 24594,7606 L 24594,7817 24805,7817 24805,7606 24594,7606 Z"/>
 <path fill="none" stroke="rgb(255,66,14)" stroke-width="80" stroke-linejoin="round" d="M 24300,8209 L 25100,8209"/>
 <path fill="rgb(255,66,14)" stroke="none" d="M 24594,8209 L 24700,8315 24805,8209 24700,8104 24594,8209 Z"/>
 <path fill="none" stroke="rgb(255,66,14)" stroke-linejoin="round" d="M 24594,8209 L 24700,8315 24805,8209 24700,8104 24594,8209 Z"/>
 <path fill="none" stroke="rgb(255,211,32)" stroke-width="80" stroke-linejoin="round" d="M 24300,8706 L 25100,8706"/>
 <path fill="rgb(255,211,32)" stroke="none" d="M 24594,8601 L 24700,8812 24805,8601 24594,8601 Z"/>
 <path fill="none" stroke="rgb(255,211,32)" stroke-linejoin="round" d="M 24594,8601 L 24700,8812 24805,8601 24594,8601 Z"/>
 <path fill="none" stroke="rgb(87,157,28)" stroke-width="80" stroke-linejoin="round" d="M 24300,9204 L 25100,9204"/>
 <path fill="rgb(87,157,28)" stroke="none" d="M 24594,9310 L 24805,9310 24700,9099 24594,9310 Z"/>
 <path fill="none" stroke="rgb(87,157,28)" stroke-linejoin="round" d="M 24594,9310 L 24805,9310 24700,9099 24594,9310 Z"/>
 <text class="TextShape"><tspan class="TextParagraph" font-family="Liberation Sans, sans-serif" font-size="353px" font-weight="400"><tspan class="TextPosition" x="25200" y="7831"><tspan fill="rgb(0,0,0)" stroke="none">quick</tspan></tspan></tspan></text>
 <text class="TextShape"><tspan class="TextParagraph" font-family="Liberation Sans, sans-serif" font-size="353px" font-weight="400"><tspan class="TextPosition" x="25200" y="8329"><tspan fill="rgb(0,0,0)" stroke="none">pquick</tspan></tspan></tspan></text>
 <text class="TextShape"><tspan class="TextParagraph" font-family="Liberation Sans, sans-serif" font-size="353px" font-weight="400"><tspan class="TextPosition" x="25200" y="8826"><tspan fill="rgb(0,0,0)" stroke="none">bitonic</tspan></tspan></tspan></text>
 <text class="TextShape"><tspan class="TextParagraph" font-family="Liberation Sans, sans-serif" font-size="353px" font-weight="400"><tspan class="TextPosition" x="25200" y="9324"><tspan fill="rgb(0,0,0)" stroke="none">gpu</tspan></tspan></tspan></text>
</svg>