<svg xmlns="http://www.w3.org/2000/svg" style="width: 100%; height: 100%;" viewBox="0 0 388.449 263.035" width="388.449pt" height="263.035pt" xmlns:xlink="http://www.w3.org/1999/xlink" version="1.1">
 <defs>
  <style type="text/css">
*{stroke-linecap:butt;stroke-linejoin:round;}
  </style>
 </defs>
 <g id="figure_1">
  <g id="patch_1">
   <path style="fill:none;" d="M 0 263.035 L 388.449 263.035 L 388.449 0 L 0 0 Z"/>
  </g>
  <g id="axes_1">
   <g id="patch_2">
    <path style="fill:#ffffff;" d="M 40.6031 225.479 L 375.403 225.479 L 375.403 8.03912 L 40.6031 8.03912 Z"/>
   </g>
   <g id="matplotlib.axis_1">
    <g id="xtick_1">
     <g id="line2d_1">
      <defs>
       <path id="m0a3c9fd970" style="stroke:#000000;stroke-width:0.8;" d="M 0 0 L 0 3.5"/>
      </defs>
      <g>
       <use style="stroke:#000000;stroke-width:0.8;" x="55.8213" y="225.479" xlink:href="#m0a3c9fd970"/>
      </g>
     </g>
     <g id="text_1">
      <!-- 0.0 -->
      <defs>
       <path id="DejaVuSans-48" d="M 31.7813 66.4063 Q 24.1719 66.4063 20.3281 58.9063 Q 16.5 51.4219 16.5 36.375 Q 16.5 21.3906 20.3281 13.8906 Q 24.1719 6.39063 31.7813 6.39063 Q 39.4531 6.39063 43.2813 13.8906 Q 47.125 21.3906 47.125 36.375 Q 47.125 51.4219 43.2813 58.9063 Q 39.4531 66.4063 31.7813 66.4063 Z M 31.7813 74.2188 Q 44.0469 74.2188 50.5156 64.5156 Q 56.9844 54.8281 56.9844 36.375 Q 56.9844 17.9688 50.5156 8.26563 Q 44.0469 -1.42188 31.7813 -1.42188 Q 19.5313 -1.42188 13.0625 8.26563 Q 6.59375 17.9688 6.59375 36.375 Q 6.59375 54.8281 13.0625 64.5156 Q 19.5313 74.2188 31.7813 74.2188 Z"/>
       <path id="DejaVuSans-46" d="M 10.6875 12.4063 L 21 12.4063 L 21 0 L 10.6875 0 Z"/>
      </defs>
      <g transform="translate(47.8697 240.078) scale(0.1, -0.1)">
       <use xlink:href="#DejaVuSans-48"/>
       <use x="63.623" xlink:href="#DejaVuSans-46"/>
       <use x="95.4102" xlink:href="#DejaVuSans-48"/>
      </g>
     </g>
    </g>
    <g id="xtick_2">
     <g id="line2d_2">
      <g>
       <use style="stroke:#000000;stroke-width:0.8;" x="101.175" y="225.479" xlink:href="#m0a3c9fd970"/>
      </g>
     </g>
     <g id="text_2">
      <!-- 0.5 -->
      <defs>
       <path id="DejaVuSans-53" d="M 10.7969 72.9063 L 49.5156 72.9063 L 49.5156 64.5938 L 19.8281 64.5938 L 19.8281 46.7344 Q 21.9688 47.4688 24.1094 47.8281 Q 26.2656 48.1875 28.4219 48.1875 Q 40.625 48.1875 47.75 41.5 Q 54.8906 34.8125 54.8906 23.3906 Q 54.8906 11.625 47.5625 5.09375 Q 40.2344 -1.42188 26.9063 -1.42188 Q 22.3125 -1.42188 17.5469 -0.640625 Q 12.7969 0.140625 7.71875 1.70313 L 7.71875 11.625 Q 12.1094 9.23438 16.7969 8.0625 Q 21.4844 6.89063 26.7031 6.89063 Q 35.1563 6.89063 40.0781 11.3281 Q 45.0156 15.7656 45.0156 23.3906 Q 45.0156 31 40.0781 35.4375 Q 35.1563 39.8906 26.7031 39.8906 Q 22.75 39.8906 18.8125 39.0156 Q 14.8906 38.1406 10.7969 36.2813 Z"/>
      </defs>
      <g transform="translate(93.2234 240.078) scale(0.1, -0.1)">
       <use xlink:href="#DejaVuSans-48"/>
       <use x="63.623" xlink:href="#DejaVuSans-46"/>
       <use x="95.4102" xlink:href="#DejaVuSans-53"/>
      </g>
     </g>
    </g>
    <g id="xtick_3">
     <g id="line2d_3">
      <g>
       <use style="stroke:#000000;stroke-width:0.8;" x="146.529" y="225.479" xlink:href="#m0a3c9fd970"/>
      </g>
     </g>
     <g id="text_3">
      <!-- 1.0 -->
      <defs>
       <path id="DejaVuSans-49" d="M 12.4063 8.29688 L 28.5156 8.29688 L 28.5156 63.9219 L 10.9844 60.4063 L 10.9844 69.3906 L 28.4219 72.9063 L 38.2813 72.9063 L 38.2813 8.29688 L 54.3906 8.29688 L 54.3906 0 L 12.4063 0 Z"/>
      </defs>
      <g transform="translate(138.577 240.078) scale(0.1, -0.1)">
       <use xlink:href="#DejaVuSans-49"/>
       <use x="63.623" xlink:href="#DejaVuSans-46"/>
       <use x="95.4102" xlink:href="#DejaVuSans-48"/>
      </g>
     </g>
    </g>
    <g id="xtick_4">
     <g id="line2d_4">
      <g>
       <use style="stroke:#000000;stroke-width:0.8;" x="191.882" y="225.479" xlink:href="#m0a3c9fd970"/>
      </g>
     </g>
     <g id="text_4">
      <!-- 1.5 -->
      <g transform="translate(183.931 240.078) scale(0.1, -0.1)">
       <use xlink:href="#DejaVuSans-49"/>
       <use x="63.623" xlink:href="#DejaVuSans-46"/>
       <use x="95.4102" xlink:href="#DejaVuSans-53"/>
      </g>
     </g>
    </g>
    <g id="xtick_5">
     <g id="line2d_5">
      <g>
       <use style="stroke:#000000;stroke-width:0.8;" x="237.236" y="225.479" xlink:href="#m0a3c9fd970"/>
      </g>
     </g>
     <g id="text_5">
      <!-- 2.0 -->
      <defs>
       <path id="DejaVuSans-50" d="M 19.1875 8.29688 L 53.6094 8.29688 L 53.6094 0 L 7.32813 0 L 7.32813 8.29688 Q 12.9375 14.1094 22.625 23.8906 Q 32.3281 33.6875 34.8125 36.5313 Q 39.5469 41.8438 41.4219 45.5313 Q 43.3125 49.2188 43.3125 52.7813 Q 43.3125 58.5938 39.2344 62.25 Q 35.1563 65.9219 28.6094 65.9219 Q 23.9688 65.9219 18.8125 64.3125 Q 13.6719 62.7031 7.8125 59.4219 L 7.8125 69.3906 Q 13.7656 71.7813 18.9375 73 Q 24.125 74.2188 28.4219 74.2188 Q 39.75 74.2188 46.4844 68.5469 Q 53.2188 62.8906 53.2188 53.4219 Q 53.2188 48.9219 51.5313 44.8906 Q 49.8594 40.875 45.4063 35.4063 Q 44.1875 33.9844 37.6406 27.2188 Q 31.1094 20.4531 19.1875 8.29688 Z"/>
      </defs>
      <g transform="translate(229.285 240.078) scale(0.1, -0.1)">
       <use xlink:href="#DejaVuSans-50"/>
       <use x="63.623" xlink:href="#DejaVuSans-46"/>
       <use x="95.4102" xlink:href="#DejaVuSans-48"/>
      </g>
     </g>
    </g>
    <g id="xtick_6">
     <g id="line2d_6">
      <g>
       <use style="stroke:#000000;stroke-width:0.8;" x="282.59" y="225.479" xlink:href="#m0a3c9fd970"/>
      </g>
     </g>
     <g id="text_6">
      <!-- 2.5 -->
      <g transform="translate(274.638 240.078) scale(0.1, -0.1)">
       <use xlink:href="#DejaVuSans-50"/>
       <use x="63.623" xlink:href="#DejaVuSans-46"/>
       <use x="95.4102" xlink:href="#DejaVuSans-53"/>
      </g>
     </g>
    </g>
    <g id="xtick_7">
     <g id="line2d_7">
      <g>
       <use style="stroke:#000000;stroke-width:0.8;" x="327.944" y="225.479" xlink:href="#m0a3c9fd970"/>
      </g>
     </g>
     <g id="text_7">
      <!-- 3.0 -->
      <defs>
       <path id="DejaVuSans-51" d="M 40.5781 39.3125 Q 47.6563 37.7969 51.625 33 Q 55.6094 28.2188 55.6094 21.1875 Q 55.6094 10.4063 48.1875 4.48438 Q 40.7656 -1.42188 27.0938 -1.42188 Q 22.5156 -1.42188 17.6563 -0.515625 Q 12.7969 0.390625 7.625 2.20313 L 7.625 11.7188 Q 11.7188 9.32813 16.5938 8.10938 Q 21.4844 6.89063 26.8125 6.89063 Q 36.0781 6.89063 40.9375 10.5469 Q 45.7969 14.2031 45.7969 21.1875 Q 45.7969 27.6406 41.2813 31.2656 Q 36.7656 34.9063 28.7188 34.9063 L 20.2188 34.9063 L 20.2188 43.0156 L 29.1094 43.0156 Q 36.375 43.0156 40.2344 45.9219 Q 44.0938 48.8281 44.0938 54.2969 Q 44.0938 59.9063 40.1094 62.9063 Q 36.1406 65.9219 28.7188 65.9219 Q 24.6563 65.9219 20.0156 65.0313 Q 15.375 64.1563 9.8125 62.3125 L 9.8125 71.0938 Q 15.4375 72.6563 20.3438 73.4375 Q 25.25 74.2188 29.5938 74.2188 Q 40.8281 74.2188 47.3594 69.1094 Q 53.9063 64.0156 53.9063 55.3281 Q 53.9063 49.2656 50.4375 45.0938 Q 46.9688 40.9219 40.5781 39.3125 Z"/>
      </defs>
      <g transform="translate(319.992 240.078) scale(0.1, -0.1)">
       <use xlink:href="#DejaVuSans-51"/>
       <use x="63.623" xlink:href="#DejaVuSans-46"/>
       <use x="95.4102" xlink:href="#DejaVuSans-48"/>
      </g>
     </g>
    </g>
    <g id="xtick_8">
     <g id="line2d_8">
      <g>
       <use style="stroke:#000000;stroke-width:0.8;" x="373.297" y="225.479" xlink:href="#m0a3c9fd970"/>
      </g>
     </g>
     <g id="text_8">
      <!-- 3.5 -->
      <g transform="translate(365.346 240.078) scale(0.1, -0.1)">
       <use xlink:href="#DejaVuSans-51"/>
       <use x="63.623" xlink:href="#DejaVuSans-46"/>
       <use x="95.4102" xlink:href="#DejaVuSans-53"/>
      </g>
     </g>
    </g>
    <g id="text_9">
     <!-- size -->
     <defs>
      <path id="DejaVuSans-115" d="M 44.2813 53.0781 L 44.2813 44.5781 Q 40.4844 46.5313 36.375 47.5 Q 32.2813 48.4844 27.875 48.4844 Q 21.1875 48.4844 17.8438 46.4375 Q 14.5 44.3906 14.5 40.2813 Q 14.5 37.1563 16.8906 35.375 Q 19.2813 33.5938 26.5156 31.9844 L 29.5938 31.2969 Q 39.1563 29.25 43.1875 25.5156 Q 47.2188 21.7813 47.2188 15.0938 Q 47.2188 7.46875 41.1875 3.01563 Q 35.1563 -1.42188 24.6094 -1.42188 Q 20.2188 -1.42188 15.4531 -0.5625 Q 10.6875 0.296875 5.42188 2 L 5.42188 11.2813 Q 10.4063 8.6875 15.2344 7.39063 Q 20.0625 6.10938 24.8125 6.10938 Q 31.1563 6.10938 34.5625 8.28125 Q 37.9844 10.4531 37.9844 14.4063 Q 37.9844 18.0625 35.5156 20.0156 Q 33.0625 21.9688 24.7031 23.7813 L 21.5781 24.5156 Q 13.2344 26.2656 9.51563 29.9063 Q 5.8125 33.5469 5.8125 39.8906 Q 5.8125 47.6094 11.2813 51.7969 Q 16.75 56 26.8125 56 Q 31.7813 56 36.1719 55.2656 Q 40.5781 54.5469 44.2813 53.0781 Z"/>
      <path id="DejaVuSans-105" d="M 9.42188 54.6875 L 18.4063 54.6875 L 18.4063 0 L 9.42188 0 Z M 9.42188 75.9844 L 18.4063 75.9844 L 18.4063 64.5938 L 9.42188 64.5938 Z"/>
      <path id="DejaVuSans-122" d="M 5.51563 54.6875 L 48.1875 54.6875 L 48.1875 46.4844 L 14.4063 7.17188 L 48.1875 7.17188 L 48.1875 0 L 4.29688 0 L 4.29688 8.20313 L 38.0938 47.5156 L 5.51563 47.5156 Z"/>
      <path id="DejaVuSans-101" d="M 56.2031 29.5938 L 56.2031 25.2031 L 14.8906 25.2031 Q 15.4844 15.9219 20.4844 11.0625 Q 25.4844 6.20313 34.4219 6.20313 Q 39.5938 6.20313 44.4531 7.46875 Q 49.3125 8.73438 54.1094 11.2813 L 54.1094 2.78125 Q 49.2656 0.734375 44.1875 -0.34375 Q 39.1094 -1.42188 33.8906 -1.42188 Q 20.7969 -1.42188 13.1563 6.1875 Q 5.51563 13.8125 5.51563 26.8125 Q 5.51563 40.2344 12.7656 48.1094 Q 20.0156 56 32.3281 56 Q 43.3594 56 49.7813 48.8906 Q 56.2031 41.7969 56.2031 29.5938 Z M 47.2188 32.2344 Q 47.125 39.5938 43.0938 43.9844 Q 39.0625 48.3906 32.4219 48.3906 Q 24.9063 48.3906 20.3906 44.1406 Q 15.875 39.8906 15.1875 32.1719 Z"/>
     </defs>
     <g transform="translate(198.309 253.756) scale(0.1, -0.1)">
      <use xlink:href="#DejaVuSans-115"/>
      <use x="52.0996" xlink:href="#DejaVuSans-105"/>
      <use x="79.8828" xlink:href="#DejaVuSans-122"/>
      <use x="132.373" xlink:href="#DejaVuSans-101"/>
     </g>
    </g>
    <g id="text_10">
     <!-- 1e7 -->
     <defs>
      <path id="DejaVuSans-55" d="M 8.20313 72.9063 L 55.0781 72.9063 L 55.0781 68.7031 L 28.6094 0 L 18.3125 0 L 43.2188 64.5938 L 8.20313 64.5938 Z"/>
     </defs>
     <g transform="translate(356.525 252.756) scale(0.1, -0.1)">
      <use xlink:href="#DejaVuSans-49"/>
      <use x="63.623" xlink:href="#DejaVuSans-101"/>
      <use x="125.146" xlink:href="#DejaVuSans-55"/>
     </g>
    </g>
   </g>
   <g id="matplotlib.axis_2">
    <g id="ytick_1">
     <g id="line2d_9">
      <defs>
       <path id="mb2829887fc" style="stroke:#000000;stroke-width:0.8;" d="M 0 0 L -3.5 0"/>
      </defs>
      <g>
       <use style="stroke:#000000;stroke-width:0.8;" x="40.6031" y="215.595" xlink:href="#mb2829887fc"/>
      </g>
     </g>
     <g id="text_11">
      <!-- 0 -->
      <g transform="translate(27.2406 219.395) scale(0.1, -0.1)">
       <use xlink:href="#DejaVuSans-48"/>
      </g>
     </g>
    </g>
    <g id="ytick_2">
     <g id="line2d_10">
      <g>
       <use style="stroke:#000000;stroke-width:0.8;" x="40.6031" y="174.676" xlink:href="#mb2829887fc"/>
      </g>
     </g>
     <g id="text_12">
      <!-- 5 -->
      <g transform="translate(27.2406 178.475) scale(0.1, -0.1)">
       <use xlink:href="#DejaVuSans-53"/>
      </g>
     </g>
    </g>
    <g id="ytick_3">
     <g id="line2d_11">
      <g>
       <use style="stroke:#000000;stroke-width:0.8;" x="40.6031" y="133.757" xlink:href="#mb2829887fc"/>
      </g>
     </g>
     <g id="text_13">
      <!-- 10 -->
      <g transform="translate(20.8781 137.556) scale(0.1, -0.1)">
       <use xlink:href="#DejaVuSans-49"/>
       <use x="63.623" xlink:href="#DejaVuSans-48"/>
      </g>
     </g>
    </g>
    <g id="ytick_4">
     <g id="line2d_12">
      <g>
       <use style="stroke:#000000;stroke-width:0.8;" x="40.6031" y="92.8377" xlink:href="#mb2829887fc"/>
      </g>
     </g>
     <g id="text_14">
      <!-- 15 -->
      <g transform="translate(20.8781 96.6369) scale(0.1, -0.1)">
       <use xlink:href="#DejaVuSans-49"/>
       <use x="63.623" xlink:href="#DejaVuSans-53"/>
      </g>
     </g>
    </g>
    <g id="ytick_5">
     <g id="line2d_13">
      <g>
       <use style="stroke:#000000;stroke-width:0.8;" x="40.6031" y="51.9185" xlink:href="#mb2829887fc"/>
      </g>
     </g>
     <g id="text_15">
      <!-- 20 -->
      <g transform="translate(20.8781 55.7177) scale(0.1, -0.1)">
       <use xlink:href="#DejaVuSans-50"/>
       <use x="63.623" xlink:href="#DejaVuSans-48"/>
      </g>
     </g>
    </g>
    <g id="ytick_6">
     <g id="line2d_14">
      <g>
       <use style="stroke:#000000;stroke-width:0.8;" x="40.6031" y="10.9992" xlink:href="#mb2829887fc"/>
      </g>
     </g>
     <g id="text_16">
      <!-- 25 -->
      <g transform="translate(20.8781 14.7984) scale(0.1, -0.1)">
       <use xlink:href="#DejaVuSans-50"/>
       <use x="63.623" xlink:href="#DejaVuSans-53"/>
      </g>
     </g>
    </g>
    <g id="text_17">
     <!-- time, s -->
     <defs>
      <path id="DejaVuSans-116" d="M 18.3125 70.2188 L 18.3125 54.6875 L 36.8125 54.6875 L 36.8125 47.7031 L 18.3125 47.7031 L 18.3125 18.0156 Q 18.3125 11.3281 20.1406 9.42188 Q 21.9688 7.51563 27.5938 7.51563 L 36.8125 7.51563 L 36.8125 0 L 27.5938 0 Q 17.1875 0 13.2344 3.875 Q 9.28125 7.76563 9.28125 18.0156 L 9.28125 47.7031 L 2.6875 47.7031 L 2.6875 54.6875 L 9.28125 54.6875 L 9.28125 70.2188 Z"/>
      <path id="DejaVuSans-109" d="M 52 44.1875 Q 55.375 50.25 60.0625 53.125 Q 64.75 56 71.0938 56 Q 79.6406 56 84.2813 50.0156 Q 88.9219 44.0469 88.9219 33.0156 L 88.9219 0 L 79.8906 0 L 79.8906 32.7188 Q 79.8906 40.5781 77.0938 44.375 Q 74.3125 48.1875 68.6094 48.1875 Q 61.625 48.1875 57.5625 43.5469 Q 53.5156 38.9219 53.5156 30.9063 L 53.5156 0 L 44.4844 0 L 44.4844 32.7188 Q 44.4844 40.625 41.7031 44.4063 Q 38.9219 48.1875 33.1094 48.1875 Q 26.2188 48.1875 22.1563 43.5313 Q 18.1094 38.875 18.1094 30.9063 L 18.1094 0 L 9.07813 0 L 9.07813 54.6875 L 18.1094 54.6875 L 18.1094 46.1875 Q 21.1875 51.2188 25.4844 53.6094 Q 29.7813 56 35.6875 56 Q 41.6563 56 45.8281 52.9688 Q 50 49.9531 52 44.1875 Z"/>
      <path id="DejaVuSans-44" d="M 11.7188 12.4063 L 22.0156 12.4063 L 22.0156 4 L 14.0156 -11.625 L 7.71875 -11.625 L 11.7188 4 Z"/>
      <path id="DejaVuSans-32"/>
     </defs>
     <g transform="translate(14.7984 133.838) rotate(-90) scale(0.1, -0.1)">
      <use xlink:href="#DejaVuSans-116"/>
      <use x="39.209" xlink:href="#DejaVuSans-105"/>
      <use x="66.9922" xlink:href="#DejaVuSans-109"/>
      <use x="164.404" xlink:href="#DejaVuSans-101"/>
      <use x="225.928" xlink:href="#DejaVuSans-44"/>
      <use x="257.715" xlink:href="#DejaVuSans-32"/>
      <use x="289.502" xlink:href="#DejaVuSans-115"/>
     </g>
    </g>
   </g>
   <g id="line2d_15">
    <path style="fill:none;stroke:#1f77b4;stroke-linecap:square;stroke-width:1.5;" clip-path="url(#p39bc34bf11)" d="M 55.8213 209.924 L 55.8213 215.595 L 55.8214 215.587 L 55.8216 215.587 L 55.8218 215.587 L 55.8224 215.587 L 55.8236 215.587 L 55.8259 215.587 L 55.8306 215.587 L 55.8398 215.587 L 55.8584 215.579 L 55.8956 215.579 L 55.9699 215.571 L 56.1185 215.555 L 56.4157 215.514 L 57.0102 215.44 L 58.1991 215.276 L 60.577 214.908 L 65.3326 214.09 L 74.844 212.396 L 93.8667 208.721 L 131.912 200.766 L 208.003 183.646 L 360.185 145.345"/>
   </g>
   <g id="line2d_16">
    <path style="fill:none;stroke:#ff7f0e;stroke-linecap:square;stroke-width:1.5;" clip-path="url(#p39bc34bf11)" d="M 55.8213 215.595 L 55.8213 215.595 L 55.8214 215.595 L 55.8216 215.595 L 55.8218 215.595 L 55.8224 215.595 L 55.8236 215.595 L 55.8259 215.587 L 55.8306 215.595 L 55.8398 215.587 L 55.8584 215.587 L 55.8956 215.579 L 55.9699 215.546 L 56.1185 215.481 L 56.4157 215.415 L 57.0102 215.154 L 58.1991 214.687 L 60.577 213.484 L 65.3326 209.834 L 74.844 206.16 L 93.8667 195.701 L 131.912 172.745 L 208.003 123.912 L 360.185 17.9228"/>
   </g>
   <g id="patch_3">
    <path style="fill:none;stroke:#000000;stroke-linecap:square;stroke-linejoin:miter;stroke-width:0.8;" d="M 40.6031 225.479 L 40.6031 8.03912"/>
   </g>
   <g id="patch_4">
    <path style="fill:none;stroke:#000000;stroke-linecap:square;stroke-linejoin:miter;stroke-width:0.8;" d="M 375.403 225.479 L 375.403 8.03912"/>
   </g>
   <g id="patch_5">
    <path style="fill:none;stroke:#000000;stroke-linecap:square;stroke-linejoin:miter;stroke-width:0.8;" d="M 40.6031 225.479 L 375.403 225.479"/>
   </g>
   <g id="patch_6">
    <path style="fill:none;stroke:#000000;stroke-linecap:square;stroke-linejoin:miter;stroke-width:0.8;" d="M 40.6031 8.03912 L 375.403 8.03912"/>
   </g>
   <g id="legend_1">
    <g id="patch_7">
     <path style="fill:#ffffff;opacity:0.8;stroke:#cccccc;stroke-linejoin:miter;" d="M 47.6031 45.3954 L 100.7 45.3954 Q 102.7 45.3954 102.7 43.3954 L 102.7 15.0391 Q 102.7 13.0391 100.7 13.0391 L 47.6031 13.0391 Q 45.6031 13.0391 45.6031 15.0391 L 45.6031 43.3954 Q 45.6031 45.3954 47.6031 45.3954 Z"/>
    </g>
    <g id="line2d_17">
     <path style="fill:none;stroke:#1f77b4;stroke-linecap:square;stroke-width:1.5;" d="M 49.6031 21.1376 L 69.6031 21.1376"/>
    </g>
    <g id="line2d_18"/>
    <g id="text_18">
     <!-- GPU -->
     <defs>
      <path id="DejaVuSans-71" d="M 59.5156 10.4063 L 59.5156 29.9844 L 43.4063 29.9844 L 43.4063 38.0938 L 69.2813 38.0938 L 69.2813 6.78125 Q 63.5781 2.73438 56.6875 0.65625 Q 49.8125 -1.42188 42 -1.42188 Q 24.9063 -1.42188 15.25 8.5625 Q 5.60938 18.5625 5.60938 36.375 Q 5.60938 54.25 15.25 64.2344 Q 24.9063 74.2188 42 74.2188 Q 49.125 74.2188 55.5469 72.4531 Q 61.9688 70.7031 67.3906 67.2813 L 67.3906 56.7813 Q 61.9219 61.4219 55.7656 63.7656 Q 49.6094 66.1094 42.8281 66.1094 Q 29.4375 66.1094 22.7188 58.6406 Q 16.0156 51.1719 16.0156 36.375 Q 16.0156 21.625 22.7188 14.1563 Q 29.4375 6.6875 42.8281 6.6875 Q 48.0469 6.6875 52.1406 7.59375 Q 56.25 8.5 59.5156 10.4063 Z"/>
      <path id="DejaVuSans-80" d="M 19.6719 64.7969 L 19.6719 37.4063 L 32.0781 37.4063 Q 38.9688 37.4063 42.7188 40.9688 Q 46.4844 44.5313 46.4844 51.125 Q 46.4844 57.6719 42.7188 61.2344 Q 38.9688 64.7969 32.0781 64.7969 Z M 9.8125 72.9063 L 32.0781 72.9063 Q 44.3438 72.9063 50.6094 67.3594 Q 56.8906 61.8125 56.8906 51.125 Q 56.8906 40.3281 50.6094 34.8125 Q 44.3438 29.2969 32.0781 29.2969 L 19.6719 29.2969 L 19.6719 0 L 9.8125 0 Z"/>
      <path id="DejaVuSans-85" d="M 8.6875 72.9063 L 18.6094 72.9063 L 18.6094 28.6094 Q 18.6094 16.8906 22.8438 11.7344 Q 27.0938 6.59375 36.625 6.59375 Q 46.0938 6.59375 50.3438 11.7344 Q 54.5938 16.8906 54.5938 28.6094 L 54.5938 72.9063 L 64.5 72.9063 L 64.5 27.3906 Q 64.5 13.1406 57.4375 5.85938 Q 50.3906 -1.42188 36.625 -1.42188 Q 22.7969 -1.42188 15.7344 5.85938 Q 8.6875 13.1406 8.6875 27.3906 Z"/>
     </defs>
     <g transform="translate(77.6031 24.6376) scale(0.1, -0.1)">
      <use xlink:href="#DejaVuSans-71"/>
      <use x="77.4902" xlink:href="#DejaVuSans-80"/>
      <use x="137.793" xlink:href="#DejaVuSans-85"/>
     </g>
    </g>
    <g id="line2d_19">
     <path style="fill:none;stroke:#ff7f0e;stroke-linecap:square;stroke-width:1.5;" d="M 49.6031 35.8157 L 69.6031 35.8157"/>
    </g>
    <g id="line2d_20"/>
    <g id="text_19">
     <!-- CPU -->
     <defs>
      <path id="DejaVuSans-67" d="M 64.4063 67.2813 L 64.4063 56.8906 Q 59.4219 61.5313 53.7813 63.8125 Q 48.1406 66.1094 41.7969 66.1094 Q 29.2969 66.1094 22.6563 58.4688 Q 16.0156 50.8281 16.0156 36.375 Q 16.0156 21.9688 22.6563 14.3281 Q 29.2969 6.6875 41.7969 6.6875 Q 48.1406 6.6875 53.7813 8.98438 Q 59.4219 11.2813 64.4063 15.9219 L 64.4063 5.60938 Q 59.2344 2.09375 53.4375 0.328125 Q 47.6563 -1.42188 41.2188 -1.42188 Q 24.6563 -1.42188 15.125 8.70313 Q 5.60938 18.8438 5.60938 36.375 Q 5.60938 53.9531 15.125 64.0781 Q 24.6563 74.2188 41.2188 74.2188 Q 47.75 74.2188 53.5313 72.4844 Q 59.3281 70.75 64.4063 67.2813 Z"/>
     </defs>
     <g transform="translate(77.6031 39.3157) scale(0.1, -0.1)">
      <use xlink:href="#DejaVuSans-67"/>
      <use x="69.8242" xlink:href="#DejaVuSans-80"/>
      <use x="130.127" xlink:href="#DejaVuSans-85"/>
     </g>
    </g>
   </g>
  </g>
 </g>
 <defs>
  <clipPath id="p39bc34bf11">
   <rect x="40.6031" y="8.03912" width="334.8" height="217.44"/>
  </clipPath>
 </defs>
</svg>