<?xml version="1.0" encoding="UTF-8"?>
<!DOCTYPE svg PUBLIC "-//W3C//DTD SVG 1.1//EN" "http://www.w3.org/Graphics/SVG/1.1/DTD/svg11.dtd">
<svg width="321mm" height="205mm" viewBox="0 0 32100 20500" version="1.1" xmlns="http://www.w3.org/2000/svg" xmlns:xlink="http://www.w3.org/1999/xlink" stroke-width="28.222" stroke-linejoin="round" xml:space="preserve">
 <path fill="rgb(255,255,255)" stroke="none" d="M 16038,20451 L 0,20451 0,0 32075,0 32075,20451 16038,20451 Z"/>
 <path fill="none" stroke="rgb(179,179,179)" stroke-linejoin="round" d="M 15217,18259 L 2719,18259 2719,635 27714,635 27714,18259 15217,18259 Z"/>
 <path fill="none" stroke="rgb(179,179,179)" stroke-linejoin="round" d="M 27714,18258 L 2719,18258"/>
 <path fill="none" stroke="rgb(179,179,179)" stroke-linejoin="round" d="M 27714,16054 L 2719,16054"/>
 <path fill="none" stroke="rgb(179,179,179)" stroke-linejoin="round" d="M 27714,13851 L 2719,13851"/>
 <path fill="none" stroke="rgb(179,179,179)" stroke-linejoin="round" d="M 27714,11648 L 2719,11648"/>
 <path fill="none" stroke="rgb(179,179,179)" stroke-linejoin="round" d="M 27714,9446 L 2719,9446"/>
 <path fill="none" stroke="rgb(179,179,179)" stroke-linejoin="round" d="M 27714,7243 L 2719,7243"/>
 <path fill="none" stroke="rgb(179,179,179)" stroke-linejoin="round" d="M 27714,5040 L 2719,5040"/>
 <path fill="none" stroke="rgb(179,179,179)" stroke-linejoin="round" d="M 27714,2837 L 2719,2837"/>
 <path fill="none" stroke="rgb(179,179,179)" stroke-linejoin="round" d="M 27714,634 L 2719,634"/>
 <path fill="none" stroke="rgb(179,179,179)" stroke-linejoin="round" d="M 2719,18408 L 2719,18258"/>
 <path fill="none" stroke="rgb(179,179,179)" stroke-linejoin="round" d="M 2719,18408 L 2719,18258"/>
 <path fill="none" stroke="rgb(179,179,179)" stroke-linejoin="round" d="M 6289,18408 L 6289,18258"/>
 <path fill="none" stroke="rgb(179,179,179)" stroke-linejoin="round" d="M 6289,18408 L 6289,18258"/>
 <path fill="none" stroke="rgb(179,179,179)" stroke-linejoin="round" d="M 9860,18408 L 9860,18258"/>
 <path fill="none" stroke="rgb(179,179,179)" stroke-linejoin="round" d="M 9860,18408 L 9860,18258"/>
 <path fill="none" stroke="rgb(179,179,179)" stroke-linejoin="round" d="M 13431,18408 L 13431,18258"/>
 <path fill="none" stroke="rgb(179,179,179)" stroke-linejoin="round" d="M 13431,18408 L 13431,18258"/>
 <path fill="none" stroke="rgb(179,179,179)" stroke-linejoin="round" d="M 17001,18408 L 17001,18258"/>
 <path fill="none" stroke="rgb(179,179,179)" stroke-linejoin="round" d="M 17001,18408 L 17001,18258"/>
 <path fill="none" stroke="rgb(179,179,179)" stroke-linejoin="round" d="M 20572,18408 L 20572,18258"/>
 <path fill="none" stroke="rgb(179,179,179)" stroke-linejoin="round" d="M 20572,18408 L 20572,18258"/>
 <path fill="none" stroke="rgb(179,179,179)" stroke-linejoin="round" d="M 24143,18408 L 24143,18258"/>
 <path fill="none" stroke="rgb(179,179,179)" stroke-linejoin="round" d="M 24143,18408 L 24143,18258"/>
 <path fill="none" stroke="rgb(179,179,179)" stroke-linejoin="round" d="M 27714,18408 L 27714,18258"/>
 <path fill="none" stroke="rgb(179,179,179)" stroke-linejoin="round" d="M 27714,18408 L 27714,18258"/>
 <path fill="none" stroke="rgb(179,179,179)" stroke-linejoin="round" d="M 2719,18258 L 27714,18258"/>
 <path fill="none" stroke="rgb(179,179,179)" stroke-linejoin="round" d="M 2569,18258 L 2719,18258"/>
 <path fill="none" stroke="rgb(179,179,179)" stroke-linejoin="round" d="M 2569,18258 L 2719,18258"/>
 <path fill="none" stroke="rgb(179,179,179)" stroke-linejoin="round" d="M 2569,16054 L 2719,16054"/>
 <path fill="none" stroke="rgb(179,179,179)" stroke-linejoin="round" d="M 2569,16054 L 2719,16054"/>
 <path fill="none" stroke="rgb(179,179,179)" stroke-linejoin="round" d="M 2569,13851 L 2719,13851"/>
 <path fill="none" stroke="rgb(179,179,179)" stroke-linejoin="round" d="M 2569,13851 L 2719,13851"/>
 <path fill="none" stroke="rgb(179,179,179)" stroke-linejoin="round" d="M 2569,11648 L 2719,11648"/>
 <path fill="none" stroke="rgb(179,179,179)" stroke-linejoin="round" d="M 2569,11648 L 2719,11648"/>
 <path fill="none" stroke="rgb(179,179,179)" stroke-linejoin="round" d="M 2569,9446 L 2719,9446"/>
 <path fill="none" stroke="rgb(179,179,179)" stroke-linejoin="round" d="M 2569,9446 L 2719,9446"/>
 <path fill="none" stroke="rgb(179,179,179)" stroke-linejoin="round" d="M 2569,7243 L 2719,7243"/>
 <path fill="none" stroke="rgb(179,179,179)" stroke-linejoin="round" d="M 2569,7243 L 2719,7243"/>
 <path fill="none" stroke="rgb(179,179,179)" stroke-linejoin="round" d="M 2569,5040 L 2719,5040"/>
 <path fill="none" stroke="rgb(179,179,179)" stroke-linejoin="round" d="M 2569,5040 L 2719,5040"/>
 <path fill="none" stroke="rgb(179,179,179)" stroke-linejoin="round" d="M 2569,2837 L 2719,2837"/>
 <path fill="none" stroke="rgb(179,179,179)" stroke-linejoin="round" d="M 2569,2837 L 2719,2837"/>
 <path fill="none" stroke="rgb(179,179,179)" stroke-linejoin="round" d="M 2569,634 L 2719,634"/>
 <path fill="none" stroke="rgb(179,179,179)" stroke-linejoin="round" d="M 2569,634 L 2719,634"/>
 <path fill="none" stroke="rgb(179,179,179)" stroke-linejoin="round" d="M 2719,18258 L 2719,634"/>
 <path fill="none" stroke="rgb(0,69,134)" stroke-width="80" stroke-linejoin="round" d="M 2719,18245 L 2897,18244 3076,18244 3254,18243 3433,18242 3611,18242 3790,18241 3968,18241 4147,18240 4325,18239 4504,18239 4682,18238 4861,18237 5040,18237 5218,18236 5397,18235 5575,18234 5754,18234 5932,18233 6111,18232 6289,18231 6468,18230 6646,18230 6825,18229 7004,18228 7182,18227 7361,18225 7539,18224 7718,18223 7896,18222 8075,18220 8253,18219 8432,18217 8610,18216 8789,18214 8968,18212 9146,18210 9325,18208 9503,18206 9682,18204 9860,18201 10039,18198 10217,18196 10396,18193 10574,18190 10753,18187 10931,18183 11110,18180 11289,18177 11467,18173 11646,18169 11824,18166 12003,18162 12181,18158 12360,18154 12538,18150 12717,18145 12895,18141 13074,18137 13253,18132 13431,18128 13610,18123 13788,18119 13967,18114 14145,18109 14324,18103 14502,18097 14681,18091 14859,18084 15038,18076 15217,18067 15395,18058 15574,18048 15752,18036 15931,18024 16108,18010 16287,17995 16465,17979 16644,17961 16822,17942 17001,17921 17179,17899 17358,17875 17537,17849 17715,17822 17894,17794 18072,17765 18251,17734 18429,17703 18608,17670 18786,17637 18965,17603 19143,17569 19322,17534 19501,17498 19679,17463 19858,17427 20036,17391 20215,17354 20393,17318 20572,17282 20750,17247 20929,17210 21107,17171 21286,17129 21465,17083 21643,17031 21822,16973 22000,16907 22179,16833 22357,16749 22536,16653 22714,16545 22893,16425 23071,16289 23250,16138 23428,15971 23607,15785 23786,15581 23964,15357 24143,15111 24321,14844 24500,14555 24678,14246 24857,13918 25035,13573 25214,13210 25392,12832 25571,12440 25750,12034 25928,11616 26107,11187 26285,10747 26464,10299 26642,9844 26821,9381 26999,8913 27178,8440 27356,7964 27535,7485 27714,7006"/>
 <path fill="none" stroke="rgb(255,66,14)" stroke-width="80" stroke-linejoin="round" d="M 2719,18183 L 2897,18180 3076,18176 3254,18172 3433,18169 3611,18165 3790,18161 3968,18157 4147,18153 4325,18149 4504,18145 4682,18141 4861,18136 5040,18132 5218,18127 5397,18122 5575,18117 5754,18112 5932,18106 6111,18100 6289,18094 6468,18088 6646,18082 6825,18075 7004,18068 7182,18060 7361,18053 7539,18045 7718,18036 7896,18027 8075,18018 8253,18009 8432,17999 8610,17988 8789,17978 8968,17966 9146,17955 9325,17942 9503,17930 9682,17917 9860,17903 10039,17889 10217,17874 10396,17858 10574,17842 10753,17826 10931,17808 11110,17790 11289,17772 11467,17752 11646,17732 11824,17711 12003,17689 12181,17667 12360,17643 12538,17619 12717,17594 12895,17567 13074,17540 13253,17512 13431,17483 13610,17453 13788,17422 13967,17389 14145,17356 14324,17321 14502,17284 14681,17246 14859,17206 15038,17165 15217,17122 15395,17077 15574,17030 15752,16980 15931,16929 16108,16876 16287,16820 16465,16762 16644,16701 16822,16638 17001,16572 17179,16504 17358,16432 17537,16358 17715,16281 17894,16202 18072,16119 18251,16033 18429,15944 18608,15853 18786,15758 18965,15660 19143,15559 19322,15455 19501,15348 19679,15237 19858,15124 20036,15007 20215,14886 20393,14763 20572,14636 20750,14505 20929,14370 21107,14231 21286,14086 21465,13935 21643,13777 21822,13612 22000,13438 22179,13256 22357,13064 22536,12862 22714,12650 22893,12426 23071,12189 23250,11940 23428,11678 23607,11401 23786,11109 23964,10802 24143,10479 24321,10140 24500,9784 24678,9413 24857,9027 25035,8628 25214,8217 25392,7794 25571,7359 25750,6915 25928,6461 26107,5999 26285,5530 26464,5053 26642,4571 26821,4083 26999,3592 27178,3097 27356,2599 27535,2100 27714,1600"/>
 <path fill="none" stroke="rgb(255,211,32)" stroke-width="80" stroke-linejoin="round" d="M 2719,18248 L 2897,18248 3076,18247 3254,18247 3433,18247 3611,18246 3790,18246 3968,18246 4147,18245 4325,18245 4504,18245 4682,18244 4861,18244 5040,18243 5218,18243 5397,18243 5575,18242 5754,18242 5932,18241 6111,18241 6289,18240 6468,18240 6646,18239 6825,18238 7004,18238 7182,18237 7361,18236 7539,18236 7718,18235 7896,18234 8075,18233 8253,18232 8432,18232 8610,18231 8789,18230 8968,18229 9146,18228 9325,18227 9503,18226 9682,18225 9860,18224 10039,18223 10217,18222 10396,18220 10574,18219 10753,18218 10931,18217 11110,18215 11289,18214 11467,18212 11646,18211 11824,18209 12003,18208 12181,18206 12360,18204 12538,18202 12717,18200 12895,18198 13074,18196 13253,18194 13431,18191 13610,18189 13788,18186 13967,18184 14145,18181 14324,18178 14502,18175 14681,18172 14859,18169 15038,18166 15217,18162 15395,18159 15574,18155 15752,18151 15931,18147 16108,18142 16287,18138 16465,18133 16644,18129 16822,18124 17001,18119 17179,18113 17358,18108 17537,18102 17715,18096 17894,18090 18072,18084 18251,18078 18429,18071 18608,18064 18786,18057 18965,18049 19143,18042 19322,18034 19501,18026 19679,18018 19858,18009 20036,18001 20215,17992 20393,17983 20572,17973 20750,17963 20929,17953 21107,17943 21286,17932 21465,17921 21643,17909 21822,17897 22000,17885 22179,17871 22357,17857 22536,17842 22714,17827 22893,17811 23071,17793 23250,17775 23428,17756 23607,17736 23786,17715 23964,17693 24143,17670 24321,17646 24500,17620 24678,17593 24857,17566 25035,17537 25214,17508 25392,17478 25571,17447 25750,17415 25928,17383 26107,17350 26285,17316 26464,17283 26642,17248 26821,17214 26999,17179 27178,17143 27356,17108 27535,17073 27714,17037"/>
 <text class="TextShape"><tspan class="TextParagraph" font-family="Source Sans Pro, sans-serif" font-size="353px" font-weight="400"><tspan class="TextPosition" x="2242" y="18852"><tspan fill="rgb(0,0,0)" stroke="none">262144</tspan></tspan></tspan></text>
 <text class="TextShape"><tspan class="TextParagraph" font-family="Source Sans Pro, sans-serif" font-size="353px" font-weight="400"><tspan class="TextPosition" x="5812" y="18852"><tspan fill="rgb(0,0,0)" stroke="none">524288</tspan></tspan></tspan></text>
 <text class="TextShape"><tspan class="TextParagraph" font-family="Source Sans Pro, sans-serif" font-size="353px" font-weight="400"><tspan class="TextPosition" x="9304" y="18852"><tspan fill="rgb(0,0,0)" stroke="none">1048576</tspan></tspan></tspan></text>
 <text class="TextShape"><tspan class="TextParagraph" font-family="Source Sans Pro, sans-serif" font-size="353px" font-weight="400"><tspan class="TextPosition" x="12875" y="18852"><tspan fill="rgb(0,0,0)" stroke="none">2097152</tspan></tspan></tspan></text>
 <text class="TextShape"><tspan class="TextParagraph" font-family="Source Sans Pro, sans-serif" font-size="353px" font-weight="400"><tspan class="TextPosition" x="16446" y="18852"><tspan fill="rgb(0,0,0)" stroke="none">4194304</tspan></tspan></tspan></text>
 <text class="TextShape"><tspan class="TextParagraph" font-family="Source Sans Pro, sans-serif" font-size="353px" font-weight="400"><tspan class="TextPosition" x="20017" y="18852"><tspan fill="rgb(0,0,0)" stroke="none">8388608</tspan></tspan></tspan></text>
 <text class="TextShape"><tspan class="TextParagraph" font-family="Source Sans Pro, sans-serif" font-size="353px" font-weight="400"><tspan class="TextPosition" x="23509" y="18852"><tspan fill="rgb(0,0,0)" stroke="none">16777216</tspan></tspan></tspan></text>
 <text class="TextShape"><tspan class="TextParagraph" font-family="Source Sans Pro, sans-serif" font-size="353px" font-weight="400"><tspan class="TextPosition" x="27080" y="18852"><tspan fill="rgb(0,0,0)" stroke="none">33554432</tspan></tspan></tspan></text>
 <text class="TextShape"><tspan class="TextParagraph" font-family="Source Sans Pro, sans-serif" font-size="353px" font-weight="400"><tspan class="TextPosition" x="1913" y="18378"><tspan fill="rgb(0,0,0)" stroke="none">0.00</tspan></tspan></tspan></text>
 <text class="TextShape"><tspan class="TextParagraph" font-family="Source Sans Pro, sans-serif" font-size="353px" font-weight="400"><tspan class="TextPosition" x="1755" y="16174"><tspan fill="rgb(0,0,0)" stroke="none">10.00</tspan></tspan></tspan></text>
 <text class="TextShape"><tspan class="TextParagraph" font-family="Source Sans Pro, sans-serif" font-size="353px" font-weight="400"><tspan class="TextPosition" x="1755" y="13971"><tspan fill="rgb(0,0,0)" stroke="none">20.00</tspan></tspan></tspan></text>
 <text class="TextShape"><tspan class="TextParagraph" font-family="Source Sans Pro, sans-serif" font-size="353px" font-weight="400"><tspan class="TextPosition" x="1755" y="11768"><tspan fill="rgb(0,0,0)" stroke="none">30.00</tspan></tspan></tspan></text>
 <text class="TextShape"><tspan class="TextParagraph" font-family="Source Sans Pro, sans-serif" font-size="353px" font-weight="400"><tspan class="TextPosition" x="1755" y="9565"><tspan fill="rgb(0,0,0)" stroke="none">40.00</tspan></tspan></tspan></text>
 <text class="TextShape"><tspan class="TextParagraph" font-family="Source Sans Pro, sans-serif" font-size="353px" font-weight="400"><tspan class="TextPosition" x="1755" y="7362"><tspan fill="rgb(0,0,0)" stroke="none">50.00</tspan></tspan></tspan></text>
 <text class="TextShape"><tspan class="TextParagraph" font-family="Source Sans Pro, sans-serif" font-size="353px" font-weight="400"><tspan class="TextPosition" x="1755" y="5159"><tspan fill="rgb(0,0,0)" stroke="none">60.00</tspan></tspan></tspan></text>
 <text class="TextShape"><tspan class="TextParagraph" font-family="Source Sans Pro, sans-serif" font-size="353px" font-weight="400"><tspan class="TextPosition" x="1755" y="2956"><tspan fill="rgb(0,0,0)" stroke="none">70.00</tspan></tspan></tspan></text>
 <text class="TextShape"><tspan class="TextParagraph" font-family="Source Sans Pro, sans-serif" font-size="353px" font-weight="400"><tspan class="TextPosition" x="1755" y="753"><tspan fill="rgb(0,0,0)" stroke="none">80.00</tspan></tspan></tspan></text>
 <path fill="none" stroke="rgb(0,69,134)" stroke-width="80" stroke-linejoin="round" d="M 29131,9596 L 29931,9596"/>
 <path fill="none" stroke="rgb(255,66,14)" stroke-width="80" stroke-linejoin="round" d="M 29131,10226 L 29931,10226"/>
 <path fill="none" stroke="rgb(255,211,32)" stroke-width="80" stroke-linejoin="round" d="M 29131,10855 L 29931,10855"/>
 <text class="TextShape"><tspan class="TextParagraph" font-family="Source Sans Pro, sans-serif" font-size="423px" font-weight="400"><tspan class="TextPosition" x="30031" y="9754"><tspan fill="rgb(0,0,0)" stroke="none">quicksort</tspan></tspan></tspan></text>
 <text class="TextShape"><tspan class="TextParagraph" font-family="Source Sans Pro, sans-serif" font-size="423px" font-weight="400"><tspan class="TextPosition" x="30031" y="10383"><tspan fill="rgb(0,0,0)" stroke="none">bitonic</tspan></tspan></tspan></text>
 <text class="TextShape"><tspan class="TextParagraph" font-family="Source Sans Pro, sans-serif" font-size="423px" font-weight="400"><tspan class="TextPosition" x="30031" y="11013"><tspan fill="rgb(0,0,0)" stroke="none">gpu</tspan></tspan></tspan></text>
 <text class="TextShape"><tspan class="TextParagraph" font-family="Source Sans Pro, sans-serif" font-size="353px" font-weight="400"><tspan class="TextPosition" x="15154" y="19913"><tspan fill="rgb(0,0,0)" stroke="none">Array size</tspan></tspan></tspan></text>
 <text class="TextShape" transform="rotate(-90 901 10186)"><tspan class="TextParagraph" font-family="Source Sans Pro, sans-serif" font-size="353px" font-weight="400"><tspan class="TextPosition" x="901" y="10186"><tspan fill="rgb(0,0,0)" stroke="none">Time, s</tspan></tspan></tspan></text>
</svg>